<?xml version="1.0" encoding="UTF-8"?>
<!-- Generator: https://ezgif.com/png-to-svg -->
<svg version="1.1" xmlns="http://www.w3.org/2000/svg" width="3168" height="2448">
<path d="M0 0 C31.79 5.58 62.91 27.95 89 46 C89.89 46.61 89.89 46.61 90.79 47.23 C109.71 60.34 128.02 74.48 145 90 C145.95 90.84 146.89 91.69 147.87 92.55 C155.4 99.29 162.28 106.46 169 114 C169.51 114.57 170.02 115.13 170.55 115.72 C210.69 160.27 240.15 214.63 260 271 C260.36 272.03 260.73 273.06 261.1 274.12 C265.76 287.53 269.46 301.17 272.94 314.94 C273.23 316.1 273.23 316.1 273.54 317.29 C275.62 325.5 277.47 333.51 278 342 C278.66 342 279.32 342 280 342 C280.31 340.3 280.31 340.3 280.62 338.57 C282.17 331.61 284.77 324.97 287.19 318.28 C314.68 242.21 315.37 182.49 280.75 108.62 C277.86 102.6 274.7 96.75 271.35 90.97 C264 78.28 264 78.28 264 72 C270.4 72.56 275.92 74.09 281.94 76.31 C282.88 76.66 283.83 77.01 284.8 77.36 C321.88 91.38 354.29 112.84 383 140 C383.68 140.64 384.36 141.28 385.06 141.93 C389.31 146.03 393 150.53 396.69 155.13 C398.16 156.96 399.66 158.77 401.19 160.55 C432.68 197.56 448.62 246.34 454 294 C454.1 294.82 454.19 295.65 454.29 296.49 C455.35 307.09 455.24 317.74 455.25 328.38 C455.25 329.94 455.25 329.94 455.25 331.54 C455.16 420.11 420.99 502.71 378.63 579.05 C376.88 582.21 375.14 585.37 373.4 588.54 C365.7 602.5 357.8 616.33 349.72 630.07 C347.44 633.95 345.17 637.85 342.91 641.74 C337.18 651.56 331.44 661.38 325.69 671.19 C325.33 671.79 324.98 672.4 324.61 673.02 C320.99 679.2 317.37 685.37 313.75 691.54 C304.71 706.92 295.7 722.32 286.83 737.81 C284.97 741.06 283.07 744.29 281.16 747.51 C279.92 749.65 278.68 751.8 277.44 753.94 C276.88 754.87 276.32 755.8 275.74 756.76 C271.04 764.97 268.42 773.51 265.75 782.53 C264.55 786.48 263.27 790.41 261.99 794.34 C261.48 795.91 260.97 797.49 260.46 799.06 C260.2 799.85 259.94 800.65 259.68 801.46 C259.13 803.15 258.58 804.85 258.03 806.54 C255.07 815.68 252.08 824.81 248.98 833.91 C243.24 850.79 237.94 867.74 233 884.88 C216.62 941.59 216.62 941.59 205.71 967.48 C200.67 979.47 196.29 991.72 192 1004 C191.78 1004.63 191.56 1005.26 191.33 1005.91 C180.77 1036.23 172.29 1067.26 163.63 1098.16 C161.8 1104.66 159.96 1111.16 158.04 1117.63 C157.18 1120.52 156.34 1123.4 155.49 1126.29 C155.1 1127.64 154.69 1128.99 154.28 1130.33 C151.61 1139.11 150.52 1146.83 151 1156 C151.04 1157.65 151.08 1159.29 151.11 1160.94 C151.17 1162.48 151.24 1164.02 151.31 1165.56 C151.37 1166.82 151.37 1166.82 151.43 1168.1 C151.83 1175.15 152.76 1182.07 153.98 1189.03 C155.1 1195.59 156.14 1202.58 154 1209 C140.54 1203.98 130.36 1174.89 124.51 1163.04 C121.88 1157.72 119.19 1152.44 116.36 1147.23 C82.15 1084.07 60.6 1014.05 50.51 943.13 C50.32 941.83 50.14 940.53 49.95 939.18 C49.71 937.46 49.71 937.46 49.46 935.7 C49.14 933.04 49.14 933.04 48 931 C43.91 941.12 40.46 950.56 40.28 961.54 C40.13 968.79 39.15 975.83 38.12 983 C34.15 1011.52 32.25 1040.24 31 1069 C30.97 1069.69 30.94 1070.39 30.91 1071.1 C27.15 1158.85 30.88 1247.02 43 1334 C43.22 1335.57 43.22 1335.57 43.44 1337.17 C47.36 1365.3 52.13 1393.21 58 1421 C58.25 1422.16 58.25 1422.16 58.5 1423.35 C63.05 1444.86 68.46 1466 75 1487 C75.39 1488.25 75.78 1489.5 76.18 1490.79 C86.37 1523.2 99.73 1554.19 116 1584 C116.09 1583.1 116.18 1582.2 116.27 1581.28 C120.89 1535.95 128.31 1487.24 151 1447 C151.33 1447 151.66 1447 152 1447 C152.09 1447.95 152.09 1447.95 152.18 1448.93 C156.15 1490.02 167.45 1529.17 181 1568 C181.23 1568.66 181.46 1569.32 181.7 1570 C192.74 1601.7 206.03 1632.5 220 1663 C220.5 1664.1 221 1665.2 221.52 1666.33 C230.23 1685.42 239.33 1704.31 248.62 1723.12 C250.7 1727.34 252.75 1731.57 254.77 1735.82 C261.09 1749.11 267.29 1759 279 1768 C280.86 1769.54 282.71 1771.08 284.56 1772.62 C285.45 1773.33 286.33 1774.04 287.25 1774.77 C289.71 1776.77 292.13 1778.81 294.53 1780.88 C302.12 1787.4 310.03 1793.46 318.01 1799.49 C319.78 1800.83 321.53 1802.19 323.27 1803.55 C332.9 1811.1 342.92 1818.07 353 1825 C353.67 1825.46 354.34 1825.92 355.02 1826.39 C372.76 1838.52 391.2 1849.62 410 1860 C410.87 1860.48 411.75 1860.97 412.64 1861.46 C469.37 1892.59 533.42 1913 598 1918 C598.74 1918.06 599.48 1918.12 600.25 1918.18 C617.71 1919.47 635.1 1919.34 652.56 1918.12 C653.7 1918.05 654.84 1917.97 656.02 1917.89 C658.24 1917.72 660.46 1917.52 662.68 1917.3 C666 1917 666 1917 669.48 1916.94 C673.04 1916.73 675.72 1916.38 679 1915 C682.35 1911.13 684.11 1906.84 686 1902.12 C686.52 1900.95 687.04 1899.77 687.57 1898.55 C689.1 1895.06 690.56 1891.54 692 1888 C692.96 1885.71 693.92 1883.41 694.88 1881.12 C695.58 1879.41 696.29 1877.71 697 1876 C695.76 1875.97 694.53 1875.95 693.25 1875.92 C669.64 1875.23 643.65 1872.01 622 1862 C625.13 1860.26 628.06 1859.45 631.54 1858.7 C637.89 1857.16 643.47 1854.77 649.31 1851.88 C650.82 1851.14 650.82 1851.14 652.35 1850.39 C659.79 1846.72 666.88 1842.69 673.9 1838.29 C676.39 1836.76 678.9 1835.3 681.42 1833.83 C695.65 1825.59 695.65 1825.59 709 1816 C709.65 1815.52 710.29 1815.03 710.96 1814.54 C727.83 1801.27 732.78 1777.52 737.12 1757.62 C737.38 1756.45 737.38 1756.45 737.65 1755.26 C751.53 1691.95 733.62 1639.08 699.39 1585.2 C685.51 1563.72 669.94 1543.48 653.25 1524.12 C652.71 1523.49 652.16 1522.86 651.6 1522.21 C649.19 1519.43 646.77 1516.73 644.11 1514.18 C642 1512 642 1512 642 1510 C646.51 1511.39 650.58 1513.18 654.78 1515.31 C655.42 1515.63 656.07 1515.96 656.74 1516.3 C658.81 1517.34 660.87 1518.39 662.94 1519.44 C672.28 1524.18 681.67 1528.82 691.13 1533.32 C703.8 1539.35 716.34 1545.64 728.88 1551.95 C740.62 1557.86 752.41 1563.68 764.29 1569.32 C769.56 1571.82 774.79 1574.37 780 1577 C773.75 1538.38 752.44 1506.88 727.85 1477.29 C725.7 1474.62 723.81 1471.91 722 1469 C727.29 1470.44 731.15 1472.88 735.56 1476 C736.26 1476.49 736.96 1476.98 737.68 1477.48 C751.78 1487.41 764.98 1498.35 777.73 1509.95 C779.86 1511.87 782.01 1513.75 784.19 1515.62 C787.35 1518.38 790.31 1521.29 793.25 1524.28 C794.96 1525.96 796.73 1527.51 798.56 1529.06 C807.05 1536.39 815.05 1544.52 822.3 1553.08 C824.43 1555.49 826.71 1557.74 829 1560 C832.55 1563.51 835.92 1567.09 839.16 1570.88 C841.35 1573.41 843.61 1575.86 845.88 1578.31 C850 1582.83 853.89 1587.5 857.73 1592.26 C860.03 1595.03 862.43 1597.67 864.88 1600.31 C869.12 1604.92 873 1609.72 876.83 1614.68 C879.46 1618.08 882.16 1621.39 884.97 1624.64 C913.29 1657.32 934.79 1695.59 944 1738 C944.18 1738.81 944.36 1739.62 944.54 1740.45 C952.91 1780.42 945.18 1822.62 924.64 1857.62 C922.97 1860.05 921.15 1861.99 919 1864 C919.65 1859.95 920.9 1856.23 922.28 1852.38 C932.43 1818.79 911.33 1776.17 896.19 1747.28 C894.78 1744.59 893.41 1741.88 892.04 1739.17 C885.2 1725.78 877.94 1712.76 870 1700 C870.22 1701.08 870.22 1701.08 870.44 1702.18 C871.12 1705.51 871.78 1708.85 872.44 1712.19 C872.67 1713.32 872.9 1714.45 873.13 1715.62 C882.11 1761.27 868.38 1806.61 843.01 1844.8 C829.85 1864.01 814.75 1881.63 798.23 1898.03 C796.36 1899.89 794.5 1901.76 792.64 1903.63 C786.45 1909.83 780.21 1915.72 773.32 1921.15 C771.03 1922.98 768.85 1924.89 766.69 1926.88 C760.71 1932.24 754.36 1937.11 748 1942 C747.38 1942.47 746.76 1942.95 746.13 1943.44 C705.2 1974.77 660.85 2001.07 614.99 2024.47 C612.27 2025.86 609.56 2027.27 606.85 2028.69 C605.4 2029.44 603.95 2030.19 602.5 2030.94 C601.87 2031.27 601.23 2031.61 600.58 2031.96 C598.84 2032.84 598.84 2032.84 596 2034 C595.01 2033.67 594.02 2033.34 593 2033 C593.51 2032.62 594.02 2032.24 594.55 2031.86 C605.42 2023.62 614.63 2014.77 623 2004 C623.78 2003.06 624.56 2002.12 625.37 2001.14 C631.86 1993.26 637.58 1984.87 643.25 1976.38 C643.63 1975.8 644.01 1975.23 644.41 1974.65 C649.56 1966.92 654.41 1959.08 659 1951 C657.93 1951.7 656.87 1952.4 655.77 1953.12 C587 1997.33 478.47 1993.15 317.88 1974.19 C313.24 1973.17 308.62 1972.1 304 1971 C302.73 1970.7 301.46 1970.4 300.16 1970.08 C255.2 1959.25 212.29 1942.7 171 1922 C170.11 1921.55 169.21 1921.11 168.29 1920.65 C118.29 1895.57 72.41 1860.99 31.81 1822.69 C29.55 1820.58 27.27 1818.49 24.99 1816.41 C14.25 1806.59 4.08 1796.4 -5.3 1785.27 C-12.06 1777.44 -19.63 1771.48 -28.01 1765.45 C-36.65 1759.16 -44.88 1752.35 -52.95 1745.35 C-56.53 1742.24 -60.17 1739.22 -63.88 1736.25 C-67.79 1733.08 -71.39 1729.77 -74.86 1726.12 C-76.62 1724.37 -78.41 1722.79 -80.3 1721.19 C-86.5 1715.8 -92.24 1709.91 -98.04 1704.09 C-100.06 1702.07 -102.08 1700.05 -104.11 1698.03 C-110.29 1691.85 -116.35 1685.66 -122 1679 C-123.77 1677.05 -125.58 1675.12 -127.38 1673.19 C-131.59 1668.62 -135.61 1663.93 -139.51 1659.08 C-141.38 1656.77 -143.27 1654.48 -145.18 1652.2 C-153.28 1642.53 -160.9 1632.59 -168.28 1622.37 C-169.97 1620.04 -171.68 1617.71 -173.38 1615.39 C-180.64 1605.49 -187.47 1595.39 -194 1585 C-194.51 1584.19 -195.02 1583.38 -195.55 1582.55 C-203.73 1569.57 -211.56 1556.42 -219 1543 C-219.58 1541.95 -220.16 1540.91 -220.76 1539.83 C-256.48 1475.13 -281.89 1404.67 -308 1245 C-308.14 1243.08 -308.14 1243.08 -308.29 1241.11 C-309.2 1227.81 -309.19 1214.5 -309.19 1201.17 C-309.19 1197.23 -309.21 1193.29 -309.22 1189.35 C-309.28 1166.71 -308.24 1144.1 -305.31 1121.62 C-305.15 1120.33 -304.98 1119.03 -304.81 1117.69 C-296.7 1056.44 -278.83 997.71 -260.68 938.85 C-251.39 908.74 -242.23 878.61 -234.45 848.07 C-233.59 844.71 -232.73 841.36 -231.88 838 C-231.66 837.17 -231.45 836.34 -231.24 835.49 C-227.03 819.08 -222.08 802.91 -217.07 786.73 C-202.93 741.11 -190.08 695.65 -185 648 C-184.88 646.97 -184.77 645.95 -184.65 644.89 C-175.82 564.14 -188.56 478.46 -200.12 398.56 C-200.24 397.75 -200.36 396.94 -200.48 396.11 C-202.23 383.98 -204.51 372 -207 360 C-206.34 360 -205.68 360 -205 360 C-203.63 361.82 -203.63 361.82 -202.05 364.41 C-201.16 365.85 -201.16 365.85 -200.25 367.31 C-199.61 368.36 -198.97 369.42 -198.31 370.5 C-196.95 372.71 -195.58 374.93 -194.21 377.14 C-193.51 378.3 -192.8 379.45 -192.09 380.6 C-188.88 385.81 -185.63 391 -182.38 396.19 C-173.16 410.93 -163.99 425.71 -154.94 440.56 C-154.42 441.41 -153.9 442.26 -153.37 443.13 C-147.54 452.73 -141.77 462.37 -136 472 C-135.28 384.2 -138.96 295.07 -149.83 207.86 C-149.99 206.62 -150.14 205.38 -150.3 204.1 C-150.44 203.05 -150.57 202 -150.71 200.93 C-151.01 197.93 -151.05 195.01 -151 192 C-146.79 195.73 -144.03 200.32 -141 205 C-140.34 205.93 -139.69 206.86 -139.01 207.82 C-136.84 211.25 -135.33 214.74 -133.88 218.5 C-131.61 224.19 -129.21 229.78 -126.6 235.32 C-93.56 305.86 -72.8 383.96 -53 459 C-54.02 369.69 -57.68 279.74 -101.75 84.85 C-104.1 79.31 -104.1 79.31 -103 76 C-89.7 100.64 -78.09 126 -66.82 151.61 C-64.91 155.95 -62.98 160.27 -61.02 164.57 C-44.76 200.37 -30.44 237.07 -17 274 C-16.54 275.26 -16.54 275.26 -16.07 276.55 C-1.94 315.29 11.17 354.29 22.78 393.86 C24.17 398.58 25.58 403.29 27 408 C27.11 406.94 27.23 405.88 27.35 404.78 C29.63 383.86 32.16 362.99 35.38 342.19 C35.52 341.24 35.67 340.29 35.82 339.31 C37.02 331.57 38.24 323.83 39.46 316.09 C42.95 293.95 46.29 271.82 48.86 249.55 C48.96 248.66 49.06 247.78 49.17 246.86 C55.37 192.54 55.74 137.87 40 85 C39.62 83.71 39.62 83.71 39.23 82.38 C31.49 56.65 19.9 32.39 4.91 10.11 C2.88 6.81 1.44 3.6 0 0 Z M868 1697 C869 1699 869 1699 869 1699 Z " fill="#217FC1" transform="translate(1060,207)"/>
<path d="M0 0 C0.66 0.33 1.32 0.66 2 1 C1.57 9.3 0.3 16.94 -1.94 24.94 C-2.4 26.61 -2.4 26.61 -2.87 28.31 C-20.1 89.34 -48.88 148.37 -89.55 197.24 C-90.83 198.8 -92.08 200.37 -93.33 201.95 C-99.61 209.92 -106.75 216.93 -114 224 C-104.56 223.41 -95.31 222.05 -86 220.44 C-85.25 220.31 -84.5 220.18 -83.72 220.04 C-42.83 212.94 -1.98 203.59 35.43 185.15 C36.26 184.74 37.09 184.33 37.95 183.91 C38.68 183.54 39.42 183.17 40.18 182.79 C42 182 42 182 44 182 C44.12 181.05 44.25 180.1 44.38 179.12 C45 176 45 176 47 174 C47 175.65 47 177.3 47 179 C49.19 177.49 51.38 175.97 53.56 174.44 C54.48 173.81 54.48 173.81 55.41 173.17 C58.71 170.85 61.64 168.45 64.46 165.55 C97.13 131.93 151.97 115.59 197.79 114.81 C200.55 114.78 203.31 114.76 206.06 114.75 C207.08 114.74 207.08 114.74 208.11 114.73 C210.05 114.72 211.98 114.73 213.91 114.73 C215.04 114.74 216.16 114.74 217.32 114.74 C220 115 220 115 222 117 C221.08 117.59 220.16 118.19 219.21 118.8 C201.11 130.6 184.2 143.73 171 161 C170.27 161.9 169.55 162.8 168.8 163.72 C161.57 172.9 156.26 183.01 150.78 193.29 C142.08 209.56 132.34 224.38 119.38 237.58 C118.11 238.89 116.86 240.23 115.62 241.57 C82.36 276.63 28.7 289.7 -17 300 C18.21 309.55 54.94 316.05 91.5 316.2 C92.65 316.21 93.79 316.22 94.97 316.22 C128.17 316.38 159.23 314.44 191.74 307.68 C196.15 306.76 200.58 305.88 205 305 C201.84 308.55 198.37 310.6 194.16 312.69 C193.5 313.03 192.83 313.37 192.14 313.71 C190.72 314.44 189.29 315.16 187.86 315.88 C184.07 317.78 180.3 319.71 176.53 321.63 C175.78 322.01 175.04 322.39 174.27 322.78 C168.49 325.73 162.79 328.79 157.12 331.94 C146.15 338.01 134.99 343.71 123.82 349.42 C113.83 354.52 103.9 359.73 94 365 C111.54 364.41 128.97 363 146.44 361.38 C147.49 361.28 147.49 361.28 148.56 361.18 C285.59 351.87 285.59 351.87 413 299 C412.47 304.68 410.28 308.94 407.62 313.88 C407.18 314.71 406.74 315.54 406.28 316.4 C399.5 328.87 391.28 340.27 382 351 C381.36 351.75 380.73 352.49 380.07 353.26 C368.27 366.77 355.51 379.43 341 390 C339.89 390.83 338.77 391.67 337.66 392.5 C315.43 408.94 290.65 421.82 265 432 C264.08 432.37 263.16 432.74 262.21 433.13 C238.7 442.43 214.25 446.81 189.51 451.49 C183.9 452.56 178.31 453.65 172.71 454.73 C161.81 456.85 150.91 458.93 140 461 C149.06 464.84 158.14 468.23 167.5 471.25 C168.23 471.48 168.95 471.72 169.7 471.96 C206.59 483.83 243.4 490.19 282 493 C283.31 493.1 284.63 493.2 285.98 493.3 C297.11 494.07 308.22 494.19 319.37 494.19 C322.43 494.19 325.49 494.21 328.54 494.22 C342.57 494.26 356.17 493.4 370 491 C369 493 369 493 366.81 493.82 C365.84 494.09 364.86 494.35 363.86 494.63 C362.75 494.94 361.63 495.25 360.48 495.56 C359.25 495.89 358.02 496.22 356.75 496.56 C356.11 496.74 355.48 496.91 354.82 497.09 C303.41 511 251.12 522.3 198 527 C197.25 527.07 196.5 527.14 195.72 527.21 C174.87 529.13 153.77 528.48 133 526 C131.31 525.81 129.61 525.62 127.92 525.43 C126.63 525.29 125.33 525.15 124 525 C127.98 529.7 132.12 534.16 136.5 538.5 C140.88 542.84 145 547.31 149 552 C149.98 553.11 150.95 554.22 151.93 555.34 C159.25 563.67 166.31 572.15 173 581 C173.79 582.04 173.79 582.04 174.59 583.11 C185.99 598.25 199.86 616.84 203 636 C202.54 638.21 202.54 638.21 202 640 C201.28 639.55 200.55 639.11 199.81 638.65 C184.34 629.1 168.77 619.9 152.68 611.42 C150.2 610.11 147.73 608.77 145.27 607.43 C116.24 591.73 85.84 578.78 54 570 C53.67 570.33 53.34 570.66 53 571 C77.9 611.65 105.18 650.95 133.38 689.36 C134.58 690.99 135.78 692.62 136.97 694.26 C139.47 697.68 141.95 701.03 144.82 704.14 C165.67 727.54 167.38 773.02 166 803 C165.17 811.94 163.21 820.6 160 829 C158 828 158 828 156.99 825.37 C156.62 824.21 156.25 823.06 155.88 821.88 C151.72 809.64 145.7 798.61 137 789 C136.3 788.22 135.6 787.44 134.88 786.64 C121.75 772.73 103.19 764.59 84.15 763.61 C46.38 762.55 8.91 777.5 -22.36 798.07 C-24 799 -24 799 -26 799 C-26.25 799.69 -26.5 800.38 -26.76 801.1 C-28.18 804.41 -29.98 807.39 -31.88 810.44 C-45.23 832.45 -58.19 855.68 -63.81 881.04 C-64.39 883.34 -64.39 883.34 -66 887 C-69.07 888.46 -69.07 888.46 -73 889 C-73.73 889.11 -74.46 889.21 -75.21 889.32 C-77.7 889.65 -80.19 889.9 -82.69 890.12 C-84.07 890.25 -84.07 890.25 -85.47 890.38 C-134.37 894.48 -184.57 883.17 -222.73 851.31 C-238.18 838.14 -250.58 822.79 -260.62 805.12 C-260.96 804.54 -261.3 803.95 -261.64 803.35 C-262.81 801.25 -263.9 799.13 -265 797 C-265.85 795.44 -265.85 795.44 -266.71 793.84 C-272.03 783.63 -273.85 773.7 -275.38 762.38 C-275.65 760.46 -275.93 758.55 -276.21 756.64 C-276.81 752.44 -277.41 748.24 -278 744.04 C-279 736.95 -280.06 729.88 -281.12 722.8 C-281.96 717.24 -282.8 711.68 -283.63 706.12 C-283.83 704.75 -284.04 703.38 -284.25 702 C-284.93 697.45 -285.61 692.9 -286.28 688.35 C-286.45 687.19 -286.63 686.03 -286.81 684.83 C-286.96 683.75 -287.12 682.68 -287.28 681.57 C-287.42 680.63 -287.56 679.7 -287.71 678.73 C-288.02 675.8 -288.05 672.95 -288 670 C-284.69 673.08 -282.91 676.72 -280.9 680.72 C-280.51 681.48 -280.12 682.25 -279.72 683.04 C-278.45 685.52 -277.2 688.01 -275.94 690.5 C-274.63 693.06 -273.33 695.62 -272.02 698.18 C-271.17 699.86 -270.32 701.53 -269.46 703.21 C-266.56 708.91 -263.62 714.6 -260.62 720.25 C-259.89 721.64 -259.15 723.04 -258.41 724.43 C-257.85 725.49 -257.85 725.49 -257.28 726.57 C-254.51 731.83 -251.75 737.1 -249 742.38 C-248.43 743.45 -247.87 744.53 -247.29 745.64 C-246.76 746.65 -246.23 747.67 -245.69 748.71 C-245.22 749.61 -244.75 750.51 -244.26 751.44 C-243.04 753.92 -241.99 756.42 -241 759 C-216.2 751.08 -196.33 738.47 -178 720 C-176.87 718.88 -176.87 718.88 -175.71 717.74 C-159.54 700.95 -150.26 679.43 -145 657 C-144.75 655.96 -144.51 654.92 -144.25 653.85 C-138.14 622.2 -145.9 585.45 -162.75 558.03 C-179.93 534.92 -206.45 519.54 -233.88 512.19 C-234.65 511.98 -235.42 511.77 -236.22 511.56 C-255.44 506.67 -277.28 507.55 -295 517 C-302.93 521.72 -308.4 527 -313 535 C-313.4 535.68 -313.8 536.37 -314.21 537.07 C-323.96 556.24 -321.02 581.59 -315.25 601.5 C-314.99 602.29 -314.72 603.09 -314.45 603.91 C-313.93 606.3 -314.34 607.67 -315 610 C-326.25 591.71 -336.87 573.13 -345.88 553.62 C-346.34 552.62 -346.81 551.62 -347.3 550.59 C-349.34 546.13 -351.14 541.89 -352.22 537.09 C-354.4 528.01 -357.98 523.38 -365.93 518.46 C-371.61 515.09 -377.45 512.02 -383.31 508.96 C-388.62 506.17 -393.72 503.05 -398.81 499.88 C-399.63 499.38 -400.46 498.88 -401.3 498.37 C-409.23 493.49 -415.85 487.78 -421.5 480.38 C-421.97 479.77 -422.43 479.17 -422.91 478.54 C-442.18 453.11 -451.05 423.2 -446.75 391.47 C-443.96 373.43 -435.58 356.95 -424 343 C-422.97 341.73 -422.97 341.73 -421.92 340.43 C-403.54 318.74 -374.99 305.27 -347 302 C-343.49 301.87 -339.99 301.87 -336.47 301.89 C-334.92 301.89 -334.92 301.89 -333.34 301.89 C-329.94 301.89 -326.53 301.89 -323.13 301.9 C-320.76 301.9 -318.4 301.91 -316.03 301.91 C-309.81 301.91 -303.6 301.92 -297.38 301.93 C-291.03 301.94 -284.69 301.95 -278.34 301.95 C-265.89 301.96 -253.45 301.98 -241 302 C-241.27 300.99 -241.55 299.97 -241.83 298.93 C-242.2 297.58 -242.56 296.23 -242.92 294.88 C-243.1 294.21 -243.28 293.55 -243.47 292.86 C-246.36 282.09 -247.36 271.89 -247.31 260.75 C-247.31 259.47 -247.3 258.19 -247.3 256.88 C-246.93 228.37 -236.33 204.87 -216.17 184.81 C-204.33 173.39 -189.47 165.21 -174.19 159.31 C-165.09 155.54 -157.42 149.62 -149.51 143.83 C-147.14 142.1 -144.77 140.39 -142.39 138.69 C-137.91 135.48 -133.45 132.25 -129 129 C-128.21 128.42 -127.41 127.84 -126.6 127.25 C-111.29 116.09 -96.46 104.45 -81.8 92.47 C-80.23 91.19 -78.65 89.91 -77.07 88.63 C-63.52 77.66 -50.59 66.06 -38 54 C-37.24 53.28 -37.24 53.28 -36.47 52.54 C-30.1 46.44 -24.43 39.95 -19 33 C-18.26 32.08 -17.52 31.15 -16.75 30.2 C-12.35 24.55 -8.54 18.78 -5 12.56 C-4.61 11.89 -4.23 11.21 -3.83 10.52 C-1.91 7.04 -0.49 3.96 0 0 Z " fill="#865A38" transform="translate(1616,1121)"/>
<path d="M0 0 C1.98 2.97 3.32 5.81 4.76 9.07 C5.3 10.3 5.85 11.53 6.39 12.76 C6.67 13.4 6.96 14.04 7.25 14.7 C12.22 25.95 17.23 37.14 23 48 C23.59 49.12 23.59 49.12 24.19 50.25 C38.23 76.66 54.34 102.3 72.78 125.85 C76.34 130.4 79.73 135.08 83.12 139.75 C88 146.43 93.07 152.85 98.49 159.09 C100.88 161.86 103.2 164.66 105.5 167.5 C113.02 176.72 120.69 185.76 128.74 194.52 C130.67 196.64 132.56 198.77 134.44 200.94 C138.19 205.25 142.05 209.45 145.92 213.65 C147.87 215.76 149.81 217.88 151.75 220.01 C158.88 227.81 166.22 235.37 173.7 242.84 C174.88 244.01 176.05 245.19 177.23 246.36 C179.66 248.8 182.1 251.23 184.54 253.67 C187.64 256.77 190.74 259.87 193.84 262.98 C196.26 265.39 198.67 267.81 201.09 270.22 C202.23 271.37 203.38 272.51 204.52 273.66 C210.51 279.65 216.55 285.5 223 291 C224.39 292.28 225.78 293.57 227.15 294.87 C227.84 295.52 228.53 296.17 229.24 296.85 C229.94 297.52 230.65 298.19 231.38 298.88 C236.78 303.98 242.2 309.05 247.75 314 C249.32 315.4 250.88 316.81 252.44 318.22 C256.66 322.07 260.93 325.79 265.38 329.38 C269.39 332.62 273.22 335.99 277 339.5 C281.56 343.73 286.25 347.73 291.1 351.63 C294.39 354.32 297.6 357.09 300.81 359.88 C306.03 364.39 311.37 368.7 316.82 372.93 C320.8 376.02 324.67 379.22 328.5 382.5 C335.18 388.21 342.06 393.62 349 399 C350.42 400.1 351.84 401.21 353.25 402.31 C356.29 404.68 359.33 407.04 362.36 409.39 C365.41 411.76 368.45 414.13 371.48 416.51 C380.67 423.71 389.99 430.73 399.41 437.63 C403.65 440.74 407.86 443.89 412.06 447.06 C419.86 452.94 427.78 458.65 435.71 464.35 C438 466 440.29 467.66 442.58 469.32 C451.6 475.88 460.7 482.31 469.93 488.58 C472.08 490.05 474.23 491.53 476.38 493.01 C489.17 501.81 502.07 510.42 515 519 C512.43 515.68 509.89 513.06 506.61 510.42 C504.2 508.29 502.19 505.87 500.11 503.43 C498.02 501.02 495.86 498.69 493.69 496.36 C488.67 490.99 483.87 485.53 479.27 479.8 C477.21 477.26 475.1 474.76 472.97 472.27 C468.03 466.5 463.31 460.61 458.72 454.56 C456.74 451.96 454.74 449.38 452.72 446.81 C446.22 438.53 439.88 430.17 433.75 421.61 C430.23 416.69 426.65 411.83 423 407 C412.86 393.56 403.13 379.83 393.5 366.02 C391.27 362.82 389.03 359.63 386.78 356.45 C377.15 342.85 367.93 328.98 358.71 315.09 C354.8 309.19 350.86 303.3 346.92 297.41 C334.98 279.57 323.07 261.72 311.61 243.55 C310.07 241.12 308.52 238.69 306.97 236.26 C300.21 225.66 293.67 214.93 287.18 204.17 C284.05 198.99 280.91 193.82 277.66 188.72 C277.18 187.97 276.7 187.22 276.21 186.45 C275.35 185.11 274.48 183.77 273.6 182.44 C272.68 181 271.83 179.5 271 178 C271.33 177.34 271.66 176.68 272 176 C272.99 176 273.98 176 275 176 C276.31 177.61 276.31 177.61 277.64 179.89 C278.15 180.74 278.65 181.58 279.17 182.45 C279.71 183.37 280.26 184.3 280.81 185.25 C293.06 205.6 307.14 224.35 322.59 242.35 C324.02 244.03 325.45 245.71 326.87 247.4 C336.16 258.4 345.87 269.03 356.15 279.11 C357.91 280.9 359.54 282.75 361.16 284.66 C365.23 289.33 369.55 293.7 373.94 298.06 C374.7 298.83 375.46 299.59 376.24 300.38 C380.44 304.57 384.73 308.57 389.22 312.44 C391.6 314.52 393.8 316.74 396 319 C400.17 323.22 404.48 327.17 409 331 C410.33 332.15 411.67 333.29 413 334.44 C413.99 335.28 414.98 336.13 416 337 C416.66 336.01 417.32 335.02 418 334 C418.21 334.51 418.42 335.02 418.64 335.55 C423.93 346.65 434.83 354.21 444.21 361.74 C446.69 363.75 449.11 365.8 451.53 367.88 C459.12 374.4 467.03 380.46 475.01 386.49 C476.78 387.83 478.53 389.19 480.27 390.55 C489.9 398.1 499.92 405.07 510 412 C510.67 412.46 511.34 412.92 512.02 413.39 C529.76 425.52 548.2 436.62 567 447 C568.31 447.72 568.31 447.72 569.64 448.46 C626.37 479.59 690.42 500 755 505 C755.74 505.06 756.48 505.12 757.25 505.18 C774.71 506.47 792.1 506.34 809.56 505.12 C810.7 505.05 811.84 504.97 813.02 504.89 C815.24 504.72 817.46 504.52 819.68 504.3 C823 504 823 504 826.48 503.94 C830.04 503.73 832.72 503.38 836 502 C839.35 498.13 841.11 493.84 843 489.12 C843.52 487.95 844.04 486.77 844.57 485.55 C846.1 482.06 847.56 478.54 849 475 C849.96 472.71 850.92 470.41 851.88 468.12 C852.58 466.41 853.29 464.71 854 463 C852.76 462.97 851.53 462.95 850.25 462.92 C826.64 462.23 800.65 459.01 779 449 C782.13 447.26 785.06 446.45 788.54 445.7 C794.89 444.16 800.47 441.77 806.31 438.88 C807.32 438.39 808.32 437.9 809.35 437.39 C816.79 433.72 823.88 429.69 830.9 425.29 C833.39 423.76 835.9 422.3 838.42 420.83 C852.65 412.59 852.65 412.59 866 403 C866.65 402.52 867.29 402.03 867.96 401.54 C884.83 388.27 889.78 364.52 894.12 344.62 C894.3 343.84 894.47 343.06 894.65 342.26 C908.53 278.95 890.62 226.08 856.39 172.2 C842.51 150.72 826.94 130.48 810.25 111.12 C809.71 110.49 809.16 109.86 808.6 109.21 C806.19 106.43 803.77 103.73 801.11 101.18 C799 99 799 99 799 97 C803.51 98.39 807.58 100.18 811.78 102.31 C812.42 102.63 813.07 102.96 813.74 103.3 C815.81 104.34 817.87 105.39 819.94 106.44 C829.28 111.18 838.67 115.82 848.13 120.32 C860.8 126.35 873.34 132.64 885.88 138.95 C897.62 144.86 909.41 150.68 921.29 156.32 C926.56 158.82 931.79 161.37 937 164 C930.75 125.38 909.44 93.88 884.85 64.29 C882.7 61.62 880.81 58.91 879 56 C884.29 57.44 888.15 59.88 892.56 63 C893.61 63.73 893.61 63.73 894.68 64.48 C908.78 74.41 921.98 85.35 934.73 96.95 C936.86 98.87 939.01 100.75 941.19 102.62 C944.35 105.38 947.31 108.29 950.25 111.28 C951.96 112.96 953.73 114.51 955.56 116.06 C964.05 123.39 972.05 131.52 979.3 140.08 C981.43 142.49 983.71 144.74 986 147 C989.55 150.51 992.92 154.09 996.16 157.88 C998.35 160.41 1000.61 162.86 1002.88 165.31 C1007 169.83 1010.89 174.5 1014.73 179.26 C1017.03 182.03 1019.43 184.67 1021.88 187.31 C1026.12 191.92 1030 196.72 1033.83 201.68 C1036.46 205.08 1039.16 208.39 1041.97 211.64 C1070.29 244.32 1091.79 282.59 1101 325 C1101.18 325.81 1101.36 326.62 1101.54 327.45 C1109.91 367.42 1102.18 409.62 1081.64 444.62 C1079.97 447.05 1078.15 448.99 1076 451 C1076.65 446.95 1077.9 443.23 1079.28 439.38 C1089.43 405.79 1068.33 363.17 1053.19 334.28 C1051.78 331.59 1050.41 328.88 1049.04 326.17 C1042.2 312.78 1034.94 299.76 1027 287 C1027.15 287.72 1027.29 288.44 1027.44 289.18 C1028.12 292.51 1028.78 295.85 1029.44 299.19 C1029.67 300.32 1029.9 301.45 1030.13 302.62 C1039.11 348.27 1025.38 393.61 1000.01 431.8 C986.85 451.01 971.75 468.63 955.23 485.03 C953.36 486.89 951.5 488.76 949.64 490.63 C943.45 496.83 937.21 502.72 930.32 508.15 C928.03 509.98 925.85 511.89 923.69 513.88 C917.71 519.24 911.36 524.11 905 529 C904.38 529.47 903.76 529.95 903.13 530.44 C862.2 561.77 817.85 588.07 771.99 611.47 C769.27 612.86 766.56 614.27 763.85 615.69 C762.4 616.44 760.95 617.19 759.5 617.94 C758.87 618.27 758.23 618.61 757.58 618.96 C755.84 619.84 755.84 619.84 753 621 C752.01 620.67 751.02 620.34 750 620 C750.51 619.62 751.02 619.24 751.55 618.86 C762.42 610.62 771.63 601.77 780 591 C780.78 590.06 781.56 589.12 782.37 588.14 C788.86 580.26 794.58 571.87 800.25 563.38 C800.63 562.8 801.01 562.23 801.41 561.65 C806.56 553.92 811.41 546.08 816 538 C814.93 538.7 813.87 539.4 812.77 540.12 C744 584.33 635.47 580.15 474.88 561.19 C470.24 560.17 465.62 559.1 461 558 C459.73 557.7 458.46 557.4 457.16 557.08 C412.2 546.25 369.29 529.7 328 509 C327.11 508.55 326.21 508.11 325.29 507.65 C275.29 482.57 229.41 447.99 188.81 409.69 C186.55 407.58 184.27 405.49 181.99 403.41 C171.25 393.59 161.08 383.4 151.7 372.27 C144.94 364.44 137.37 358.48 128.99 352.45 C120.35 346.16 112.12 339.35 104.05 332.35 C100.47 329.24 96.83 326.22 93.12 323.25 C89.21 320.08 85.61 316.77 82.14 313.12 C80.38 311.37 78.59 309.79 76.7 308.19 C70.5 302.8 64.76 296.91 58.96 291.09 C56.94 289.07 54.92 287.05 52.89 285.03 C46.71 278.85 40.65 272.66 35 266 C33.23 264.05 31.42 262.12 29.62 260.19 C25.41 255.62 21.39 250.93 17.49 246.08 C15.62 243.77 13.73 241.48 11.82 239.2 C3.72 229.53 -3.9 219.59 -11.28 209.37 C-12.97 207.04 -14.68 204.71 -16.38 202.39 C-23.64 192.49 -30.47 182.39 -37 172 C-37.51 171.19 -38.02 170.38 -38.55 169.55 C-46.73 156.57 -54.56 143.42 -62 130 C-62.58 128.95 -63.16 127.91 -63.76 126.83 C-78.74 99.69 -91.43 71.75 -103 43 C-99.24 39.7 -94.91 38.23 -90.3 36.47 C-89.42 36.13 -88.54 35.79 -87.64 35.44 C-84.72 34.31 -81.8 33.19 -78.88 32.06 C-74.72 30.46 -70.56 28.84 -66.41 27.23 C-65.33 26.81 -64.25 26.39 -63.14 25.96 C-55.05 22.82 -46.98 19.61 -38.93 16.36 C-37.79 15.9 -36.64 15.44 -35.47 14.97 C-30.97 13.16 -26.47 11.34 -21.97 9.52 C-18.86 8.26 -15.73 7 -12.61 5.74 C-11.68 5.36 -10.75 4.98 -9.79 4.59 C-8.93 4.25 -8.08 3.9 -7.2 3.55 C-6.09 3.1 -6.09 3.1 -4.95 2.64 C-3 2 -3 2 0 2 C0 1.34 0 0.68 0 0 Z M1025 284 C1026 286 1026 286 1026 286 Z " fill="#2169A2" transform="translate(903,1620)"/>
<path d="M0 0 C0.84 0 1.68 0 2.54 0 C17.65 0.05 32.17 1.39 47 4.38 C48.09 4.59 49.17 4.8 50.29 5.02 C105.34 16.07 157.99 36.12 208 61.38 C202.56 73.34 182.73 79.98 171.24 84.45 C148.24 93.01 124.36 97.85 100 100.38 C98.83 100.51 97.65 100.64 96.45 100.77 C92.96 101.09 89.49 101.27 86 101.38 C85.08 101.4 84.17 101.43 83.22 101.46 C31.81 102.73 -21.28 93.73 -71.95 85.46 C-72.82 85.32 -73.68 85.18 -74.58 85.03 C-76.17 84.77 -77.76 84.51 -79.35 84.24 C-82.64 83.69 -85.65 83.38 -89 83.38 C-73.89 92.28 -58.35 99.09 -42 105.38 C-41.06 105.74 -40.13 106.11 -39.17 106.49 C27.91 132.76 109.04 144.09 177.22 115.44 C185.55 111.74 193.06 107.14 200.55 101.97 C211.23 94.67 221.9 90.22 235 91.38 C252.33 94.87 264.79 106.57 277.48 118.13 C280.05 120.42 282.69 122.59 285.38 124.75 C294.28 131.98 302.64 139.56 310 148.38 C310.87 149.36 311.74 150.34 312.63 151.35 C325.23 165.6 335.99 181.22 346 197.38 C346.68 198.45 347.35 199.53 348.05 200.64 C353.32 209.15 357.79 217.85 361.95 226.95 C363.65 230.69 365.39 234.41 367.13 238.12 C367.47 238.85 367.8 239.57 368.15 240.32 C380.45 268.43 380.45 268.43 402.62 288.25 C405.77 289.3 408.71 289.97 412 290.38 C406.07 296.31 390.46 293.62 382.31 293.62 C381.08 293.63 381.08 293.63 379.82 293.63 C366.36 293.61 353.25 292.95 340 290.38 C339.12 290.2 338.23 290.03 337.32 289.85 C311.61 284.67 289.02 274.88 268.26 258.84 C260.87 253.16 253.31 248.57 245 244.38 C244.18 243.95 243.37 243.53 242.52 243.1 C226.85 235.05 210.72 228.87 194 223.38 C192.25 222.8 192.25 222.8 190.46 222.21 C163.11 213.36 135.04 207.12 106.81 201.81 C106.13 201.68 105.45 201.56 104.75 201.42 C96.92 199.91 96.92 199.91 89 199.38 C94.47 203.42 99.95 207.46 105.44 211.49 C107.63 213.11 109.82 214.73 112 216.36 C135.97 234.07 161.12 250.61 187 265.38 C187.93 265.9 188.86 266.43 189.81 266.98 C223.18 285.87 257.37 301.62 296 304.38 C294.59 307.2 292.99 307.34 290.05 308.44 C288.99 308.84 287.93 309.24 286.84 309.65 C285.67 310.07 284.51 310.5 283.31 310.94 C282.11 311.38 280.91 311.82 279.66 312.27 C235.42 328.31 177.62 345.73 132 325.38 C108.66 314.33 88.63 294.82 72 275.38 C71.09 274.33 70.19 273.29 69.28 272.25 C63.76 265.88 58.39 259.43 53.22 252.77 C49.69 248.23 46.08 243.76 42.44 239.31 C38.5 234.5 34.64 229.64 30.88 224.69 C25.81 218.05 20.45 211.7 15 205.38 C14.36 204.64 13.72 203.9 13.07 203.13 C11.39 201.2 9.7 199.29 8 197.38 C7.23 196.49 6.47 195.61 5.68 194.7 C4.88 193.79 4.08 192.88 3.25 191.94 C2.51 191.09 1.78 190.25 1.02 189.38 C-0.92 187.15 -0.92 187.15 -4 186.38 C-3.63 187.08 -3.26 187.79 -2.88 188.51 C75.47 338.03 75.47 338.03 63 399.38 C62.38 401.06 61.74 402.74 61 404.38 C58.08 402.91 57.94 401.03 56.82 398 C56.39 396.86 55.96 395.72 55.52 394.55 C55.06 393.32 54.6 392.08 54.12 390.81 C42.18 359.54 25.57 330.06 4 304.38 C3.57 303.85 3.14 303.33 2.69 302.8 C-6.76 291.42 -16.59 280.93 -28.17 271.7 C-33.04 267.7 -37.6 263.37 -42.2 259.06 C-44.11 257.27 -46.03 255.5 -47.96 253.73 C-55.46 246.82 -62.62 239.75 -69.45 232.18 C-71.52 229.9 -73.62 227.71 -75.81 225.56 C-78.72 222.7 -81.4 219.69 -84.06 216.6 C-86.29 214.05 -88.58 211.56 -90.88 209.06 C-94.95 204.6 -98.8 200.01 -102.59 195.31 C-105.3 192.01 -108.08 188.79 -110.88 185.56 C-115.33 180.4 -119.61 175.14 -123.79 169.75 C-126.69 166.03 -129.64 162.36 -132.64 158.71 C-141.22 148.28 -149.77 137.63 -157.32 126.41 C-160.2 122.14 -163.3 119.22 -167.44 116.19 C-168.68 115.24 -169.93 114.29 -171.17 113.34 C-171.8 112.86 -172.43 112.37 -173.09 111.88 C-176.23 109.41 -179.24 106.8 -182.25 104.19 C-186.95 100.12 -191.7 96.15 -196.58 92.3 C-201.1 88.71 -205.54 85.03 -210 81.38 C-211.83 79.87 -213.67 78.37 -215.5 76.88 C-221 72.38 -221 72.38 -226.5 67.88 C-227.41 67.13 -228.33 66.38 -229.27 65.61 C-231.04 64.16 -232.81 62.71 -234.57 61.27 C-235.44 60.56 -236.3 59.85 -237.19 59.12 C-238.07 58.4 -238.96 57.67 -239.88 56.92 C-242.32 54.92 -244.79 52.94 -247.25 50.95 C-247.98 50.36 -248.72 49.77 -249.47 49.16 C-250.94 47.98 -252.4 46.8 -253.87 45.63 C-254.54 45.09 -255.2 44.55 -255.89 44 C-256.49 43.52 -257.09 43.04 -257.71 42.54 C-258.35 41.96 -258.35 41.96 -259 41.38 C-259 41.05 -259 40.71 -259 40.38 C-258.39 40.36 -257.79 40.34 -257.16 40.32 C-182.12 38.02 -107.85 32.98 -37.24 5.29 C-24.91 0.57 -13.07 -0.03 0 0 Z " fill="#F58B24" transform="translate(2055,1621.625)"/>
<path d="M0 0 C0.82 0.64 1.64 1.28 2.48 1.93 C5.01 3.93 7.51 5.96 10 8 C11.46 9.2 11.46 9.2 12.95 10.42 C31.27 25.6 48.35 42.2 62.67 61.24 C64.01 63.02 65.38 64.78 66.74 66.54 C74.09 76.17 80.21 86.37 86 97 C86.36 97.66 86.72 98.32 87.1 99 C91.88 107.84 95.78 117.01 99.56 126.31 C100.02 127.42 100.47 128.52 100.94 129.66 C101.35 130.7 101.77 131.73 102.19 132.8 C102.56 133.73 102.94 134.66 103.32 135.62 C104 138 104 138 103 141 C102.27 140.62 101.54 140.25 100.79 139.86 C40.42 108.94 -24.52 81.93 -92 72 C-92.69 71.89 -93.39 71.78 -94.1 71.67 C-109.56 69.22 -125.38 69.35 -141 69 C-137.43 65.34 -133.95 62.53 -129.56 59.94 C-121.3 54.92 -113.28 49.57 -105.25 44.19 C-93.56 36.36 -81.82 28.62 -70 21 C-77.74 23.07 -85.41 25.29 -93.08 27.61 C-94.24 27.96 -95.41 28.31 -96.61 28.67 C-99.82 29.64 -103.02 30.61 -106.22 31.58 C-108.28 32.2 -110.33 32.81 -112.38 33.43 C-138.3 41.26 -164.22 49.14 -190.13 57.01 C-214.21 64.33 -238.3 71.64 -262.39 78.93 C-264.84 79.68 -267.3 80.42 -269.76 81.17 C-273.62 82.34 -277.48 83.5 -281.34 84.67 C-282.73 85.1 -284.13 85.52 -285.53 85.94 C-289.35 87.1 -293.17 88.25 -296.99 89.4 C-298.42 89.82 -299.84 90.26 -301.27 90.69 C-303.61 91.39 -305.94 92.09 -308.28 92.79 C-309.01 93.01 -309.73 93.23 -310.48 93.46 C-313.43 94.34 -315.91 95 -319 95 C-317.55 90.25 -315.58 85.9 -313.34 81.48 C-312.99 80.79 -312.64 80.09 -312.28 79.37 C-311.17 77.16 -310.05 74.96 -308.94 72.75 C-308.18 71.25 -307.43 69.76 -306.68 68.26 C-305.3 65.53 -303.93 62.8 -302.55 60.07 C-301.7 58.38 -300.85 56.69 -300 55 C-301.93 56.25 -303.86 57.51 -305.79 58.76 C-307.54 59.9 -309.29 61.03 -311.04 62.17 C-315.71 65.19 -320.36 68.23 -324.99 71.31 C-327.27 72.82 -329.55 74.32 -331.82 75.83 C-333.46 76.91 -335.08 78 -336.71 79.09 C-400.61 121.26 -494.84 129.42 -569 137.38 C-569.79 137.46 -570.58 137.55 -571.39 137.63 C-579.94 138.55 -588.39 139.27 -597 139 C-592.24 134.74 -586.73 132.03 -581.12 129.06 C-572.93 124.67 -564.77 120.22 -556.69 115.62 C-548.4 110.92 -540.09 106.25 -531.75 101.62 C-530.62 101 -529.49 100.37 -528.33 99.73 C-526.04 98.46 -523.74 97.18 -521.45 95.91 C-515.76 92.76 -510.07 89.6 -504.38 86.44 C-502.73 85.52 -502.73 85.52 -501.04 84.59 C-489.35 78.09 -477.67 71.55 -466 65 C-470.36 65.93 -474.71 66.86 -479.06 67.79 C-480.7 68.14 -482.33 68.49 -483.97 68.84 C-494.15 71.01 -504.28 73.28 -514.39 75.77 C-543.1 82.79 -571.57 87.22 -601 90 C-601.77 90.07 -602.54 90.15 -603.33 90.22 C-635.75 93.34 -673.12 95.28 -705 87 C-705.66 86.34 -706.32 85.68 -707 85 C-706 84.67 -706 84.67 -704.98 84.33 C-663.01 70.38 -613.99 51.18 -592.88 9.12 C-591.91 7.09 -590.95 5.05 -590 3 C-570.63 -37.79 -538.17 -80.69 -494.53 -97.17 C-482.72 -101.06 -470.96 -102.82 -458.62 -103.94 C-455.27 -104.26 -451.91 -104.59 -448.55 -104.93 C-447.69 -105.01 -446.83 -105.09 -445.94 -105.18 C-439.75 -105.8 -433.59 -106.52 -427.42 -107.29 C-426.54 -107.4 -425.67 -107.51 -424.77 -107.63 C-423.45 -107.79 -423.45 -107.79 -422.12 -107.96 C-339.41 -118.37 -259.62 -109.98 0 0 Z " fill="#F6911E" transform="translate(2356,1334)"/>
<path d="M0 0 C4.18 0.85 6.14 2.68 9.25 5.62 C12.44 8.62 15.64 11.57 19 14.38 C28.57 22.73 36.56 32.75 44 43 C44.78 44.06 45.55 45.12 46.36 46.21 C76.5 88.57 88.41 141.53 80.44 192.81 C68.55 261.89 26.15 325.81 -26.68 370.96 C-29.17 373.15 -31.58 375.4 -33.99 377.66 C-39.56 382.89 -45.2 387.92 -51.17 392.7 C-54.44 395.36 -57.63 398.11 -60.81 400.88 C-65.97 405.33 -71.23 409.61 -76.61 413.79 C-81.09 417.27 -85.49 420.84 -89.88 424.44 C-95.76 429.25 -101.75 433.88 -107.86 438.41 C-112.96 442.2 -117.99 446.08 -123 450 C-129.38 454.99 -135.82 459.89 -142.31 464.74 C-148.59 469.43 -154.8 474.21 -161 479 C-163.17 480.67 -165.33 482.33 -167.5 484 C-168.58 484.83 -169.67 485.67 -170.75 486.5 C-172.91 488.16 -175.06 489.81 -177.21 491.46 C-190.03 501.29 -202.69 511.31 -215.2 521.53 C-216.78 522.82 -218.37 524.11 -219.96 525.4 C-226.2 530.47 -232.32 535.66 -238.4 540.9 C-240.75 542.93 -243.11 544.94 -245.48 546.94 C-252.32 552.73 -258.98 558.68 -265.5 564.84 C-268.83 567.99 -272.2 571.07 -275.63 574.11 C-281.44 579.33 -286.97 584.82 -292.48 590.35 C-294.19 592.07 -295.91 593.78 -297.63 595.49 C-303.3 601.16 -308.8 606.89 -314 613 C-315.62 614.78 -317.24 616.55 -318.88 618.31 C-323.8 623.71 -328.43 629.3 -333 635 C-333.92 636.13 -334.85 637.26 -335.77 638.39 C-347.86 653.24 -358.87 668.77 -369 685 C-369.38 685.61 -369.76 686.22 -370.15 686.84 C-391.02 720.38 -406.68 755.8 -418.2 793.55 C-419.03 796.08 -419.98 798.54 -421 801 C-423.03 797.96 -423.42 796.52 -423.96 793 C-424.12 791.98 -424.28 790.96 -424.45 789.91 C-424.61 788.81 -424.77 787.7 -424.94 786.56 C-425.11 785.42 -425.28 784.27 -425.46 783.09 C-428.8 760.18 -431.13 737.17 -431.2 714 C-431.21 713.32 -431.21 712.63 -431.21 711.93 C-431.23 708.28 -431.24 704.64 -431.24 701 C-431.24 698.07 -431.26 695.14 -431.28 692.22 C-431.92 609.38 -413.32 525.01 -354 464 C-343.08 453.03 -329.9 444.27 -317.12 435.62 C-307.92 429.39 -299.15 422.6 -290.35 415.81 C-288.35 414.27 -286.35 412.74 -284.34 411.21 C-272.82 402.43 -261.6 393.28 -250.58 383.88 C-247.26 381.05 -243.9 378.29 -240.5 375.56 C-235.12 371.19 -230.06 366.51 -224.99 361.78 C-222.68 359.62 -220.33 357.51 -217.94 355.44 C-213.06 351.21 -208.33 346.82 -203.58 342.45 C-202.02 341.01 -200.45 339.59 -198.88 338.16 C-193.56 333.33 -188.33 328.43 -183.33 323.27 C-181.41 321.4 -179.46 319.67 -177.43 317.93 C-172.66 313.76 -168.19 309.33 -163.71 304.85 C-162.85 303.99 -162 303.13 -161.11 302.24 C-159.3 300.44 -157.5 298.63 -155.69 296.82 C-152.95 294.07 -150.19 291.33 -147.44 288.58 C-145.68 286.82 -143.92 285.05 -142.15 283.29 C-141.34 282.47 -140.52 281.66 -139.69 280.83 C-135.46 276.58 -131.38 272.26 -127.49 267.71 C-124.47 264.24 -121.13 261.11 -117.84 257.91 C-115.03 255.09 -112.44 252.1 -109.83 249.09 C-106.2 244.95 -102.39 240.99 -98.61 237 C-92.22 230.23 -86.16 223.21 -80.12 216.12 C-76.58 211.97 -72.99 207.85 -69.31 203.81 C-65.15 199.22 -61.24 194.46 -57.34 189.64 C-55.84 187.81 -54.33 185.98 -52.81 184.16 C-44.32 173.94 -36.03 163.59 -28 153 C-27.42 152.24 -26.85 151.48 -26.25 150.7 C-15.28 136.15 -6.17 121.96 -2 104 C-1.8 103.18 -1.61 102.36 -1.41 101.51 C2.39 84.59 2.37 67.57 2.38 50.31 C2.38 49.19 2.38 48.07 2.38 46.92 C2.38 31.19 1.56 15.65 0 0 Z " fill="#2173B9" transform="translate(1696,613)"/>
<path d="M0 0 C0.93 -0 1.86 -0 2.82 -0 C18.4 0.02 33.59 0.75 49 3.25 C50.6 3.51 50.6 3.51 52.23 3.77 C117.26 14.61 180.14 41.67 220 96.25 C220.45 96.87 220.9 97.48 221.37 98.12 C229.03 108.72 235.64 119.84 242 131.25 C242.37 131.9 242.74 132.55 243.11 133.22 C249.57 144.65 254.87 156.62 260.27 168.58 C277.61 211.43 277.61 211.43 311 241.25 C306.01 247.21 296.4 248.29 289.08 248.99 C262.07 250.85 238.18 238.75 218.04 221.75 C209.4 214.06 201.35 205.67 193.22 197.43 C187.99 192.15 182.68 187.06 177 182.25 C176.01 181.38 175.03 180.51 174.01 179.62 C149.78 158.67 123.01 142.58 92 134.25 C98.26 148.56 106 161.85 114 175.25 C115.1 177.1 116.19 178.96 117.29 180.81 C122.62 189.79 128.05 198.66 134 207.25 C134.73 208.32 134.73 208.32 135.47 209.4 C168.96 258.27 210.02 309.05 271 321.25 C271 321.58 271 321.91 271 322.25 C212.61 319.23 170.42 303.17 122.18 270.71 C118.77 268.42 115.34 266.17 111.88 263.94 C111.07 263.41 110.26 262.89 109.42 262.34 C107.91 261.36 106.39 260.38 104.86 259.42 C95.99 253.63 91.81 246.48 87.05 237.13 C57.91 180.09 13.63 138.45 -47.76 118.26 C-60.43 114.3 -74.61 109.95 -88 110.25 C-87.31 110.65 -86.62 111.05 -85.9 111.46 C-63.44 124.51 -41.45 138.18 -21 154.25 C-20.01 155.03 -19.02 155.8 -18 156.6 C-11.06 162.18 -4.46 168.12 2 174.25 C2.54 174.76 3.08 175.27 3.63 175.8 C17.29 188.82 32.27 204.8 35 224.25 C30.07 223.59 25.95 221.55 21.5 219.46 C19.8 218.68 18.1 217.9 16.4 217.12 C15.52 216.71 14.64 216.3 13.73 215.88 C-13.83 203.2 -38.79 195.3 -69.14 192.79 C-70.69 192.66 -72.24 192.53 -73.78 192.4 C-88.98 191.13 -104.18 190.05 -119.4 189.03 C-121.68 188.87 -123.96 188.72 -126.24 188.56 C-144.91 187.28 -163.59 186.08 -182.27 184.96 C-183.15 184.9 -184.03 184.85 -184.93 184.8 C-186.71 184.69 -188.48 184.59 -190.25 184.48 C-252.83 180.73 -252.83 180.73 -280.72 177.61 C-284.64 177.18 -288.56 176.75 -292.49 176.33 C-301.37 175.37 -310.24 174.39 -319.12 173.4 C-321.55 173.13 -323.99 172.86 -326.42 172.59 C-330.25 172.17 -334.08 171.74 -337.91 171.3 C-339.34 171.14 -340.78 170.98 -342.21 170.82 C-344.18 170.61 -346.15 170.38 -348.13 170.15 C-349.24 170.02 -350.36 169.9 -351.5 169.77 C-352.74 169.51 -352.74 169.51 -354 169.25 C-354.33 168.59 -354.66 167.93 -355 167.25 C-354.25 167.24 -353.49 167.22 -352.72 167.21 C-346.35 166.92 -340.87 166.09 -334.78 164.13 C-333.76 163.8 -333.76 163.8 -332.71 163.47 C-278.37 145.85 -223.95 124.5 -181.72 84.76 C-179.79 82.98 -177.88 81.3 -175.86 79.64 C-166.96 72.19 -160.02 61.96 -153.09 52.7 C-126.65 17.51 -78.05 7.97 -36.88 2.01 C-34.92 1.75 -32.96 1.5 -31 1.25 C-30.18 1.15 -29.35 1.04 -28.5 0.93 C-19.04 -0.1 -9.51 0.01 0 0 Z " fill="#F58D22" transform="translate(2177,1417.75)"/>
<path d="M0 0 C0.98 -0.01 1.96 -0.01 2.97 -0.02 C6.11 -0.04 9.26 -0.05 12.4 -0.05 C13.48 -0.05 14.55 -0.05 15.66 -0.05 C31.77 -0.03 47.43 0.47 63.34 3.2 C64.88 3.45 64.88 3.45 66.46 3.71 C109.95 10.82 152.51 26.61 190.34 49.2 C191.17 49.7 192 50.19 192.86 50.7 C205.06 58.02 216.85 65.8 228.34 74.2 C229.38 74.96 230.42 75.72 231.5 76.5 C253.76 92.92 274.46 111.31 294.09 130.77 C294.97 131.63 295.84 132.49 296.74 133.38 C302.71 139.34 308.1 145.6 313.34 152.2 C314.49 153.62 315.64 155.03 316.79 156.44 C323.43 164.74 329.43 173.24 335.03 182.26 C341.73 192.98 348.83 203.42 355.9 213.89 C356.52 214.8 357.13 215.71 357.76 216.65 C364.26 226.27 370.78 235.87 377.32 245.45 C377.83 246.2 378.34 246.95 378.86 247.71 C385.01 256.7 391.43 265.48 397.85 274.27 C399.25 276.18 400.64 278.1 402.03 280.02 C402.44 280.57 402.85 281.13 403.27 281.7 C405.47 284.75 407.11 287.65 408.34 291.2 C407.8 290.86 407.27 290.52 406.71 290.17 C401.01 286.64 395.14 283.54 389.13 280.58 C383.11 277.61 377.16 274.51 371.21 271.39 C327.32 248.44 282.07 229.54 235.34 213.2 C234.35 212.86 233.36 212.51 232.34 212.15 C216.96 206.78 201.56 201.46 186.15 196.17 C183.62 195.3 181.1 194.43 178.57 193.56 C113.77 171.14 48.44 165.58 -19.66 164.2 C-19.66 163.54 -19.66 162.88 -19.66 162.2 C12.14 132.59 63.06 116.72 103.34 102.2 C64.94 99.96 24.6 115.21 -5.91 137.9 C-21.74 149.65 -35.87 157.79 -55.22 162.39 C-57.35 162.9 -59.48 163.42 -61.6 163.93 C-62.99 164.26 -62.99 164.26 -64.4 164.6 C-66.67 165.13 -66.67 165.13 -68.66 166.2 C-71.2 166.48 -73.72 166.71 -76.26 166.9 C-77.05 166.96 -77.84 167.02 -78.65 167.08 C-81.29 167.29 -83.93 167.49 -86.57 167.69 C-88.44 167.84 -90.3 167.98 -92.16 168.13 C-96.13 168.43 -100.11 168.74 -104.08 169.04 C-109.25 169.44 -114.43 169.84 -119.6 170.24 C-139.6 171.79 -159.61 173.3 -179.63 174.63 C-229.45 177.94 -275.01 183.9 -317.75 211.87 C-318.73 212.51 -318.73 212.51 -319.72 213.15 C-320.94 213.96 -322.16 214.77 -323.37 215.6 C-324.76 216.53 -326.21 217.37 -327.66 218.2 C-328.32 217.87 -328.98 217.54 -329.66 217.2 C-321.44 203.87 -312.8 190.92 -303.66 178.2 C-303.07 177.39 -302.49 176.57 -301.89 175.73 C-293.84 164.58 -285.47 153.76 -276.66 143.2 C-276.14 142.58 -275.62 141.95 -275.09 141.3 C-273.56 139.45 -272.02 137.61 -270.47 135.77 C-270.03 135.23 -269.6 134.7 -269.14 134.16 C-261.69 125.39 -252.86 118.7 -243.22 112.52 C-235.57 107.51 -228.05 102.42 -220.72 96.95 C-219.96 96.38 -219.19 95.81 -218.4 95.22 C-217.27 94.37 -217.27 94.37 -216.11 93.51 C-207.16 86.83 -197.98 80.46 -188.75 74.17 C-188.1 73.72 -187.45 73.28 -186.79 72.83 C-186.14 72.39 -185.49 71.94 -184.82 71.49 C-179.49 67.83 -174.29 64 -169.1 60.14 C-166.68 58.36 -164.27 56.58 -161.85 54.81 C-160.51 53.83 -159.17 52.84 -157.84 51.85 C-146.1 43.17 -132.87 37.13 -119.8 30.75 C-115.39 28.59 -111.11 26.27 -106.85 23.83 C-75.42 6.94 -35.4 0.17 0 0 Z " fill="#F68F20" transform="translate(2020.66015625,1047.796875)"/>
<path d="M0 0 C5.29 1.44 9.15 3.88 13.56 7 C14.26 7.49 14.96 7.98 15.68 8.48 C29.78 18.41 42.98 29.35 55.73 40.95 C57.86 42.87 60.01 44.75 62.19 46.62 C65.35 49.38 68.31 52.29 71.25 55.28 C72.96 56.96 74.73 58.51 76.56 60.06 C85.05 67.39 93.05 75.52 100.3 84.08 C102.43 86.49 104.71 88.74 107 91 C110.55 94.51 113.92 98.09 117.16 101.88 C119.35 104.41 121.61 106.86 123.88 109.31 C128 113.83 131.89 118.5 135.73 123.26 C138.03 126.03 140.43 128.67 142.88 131.31 C147.12 135.92 151 140.72 154.83 145.68 C157.46 149.08 160.16 152.39 162.97 155.64 C191.29 188.32 212.79 226.59 222 269 C222.18 269.81 222.36 270.62 222.54 271.45 C230.91 311.42 223.18 353.62 202.64 388.62 C200.97 391.05 199.15 392.99 197 395 C197.65 390.95 198.9 387.23 200.28 383.38 C210.43 349.79 189.33 307.17 174.19 278.28 C172.78 275.59 171.41 272.88 170.04 270.17 C163.2 256.78 155.94 243.76 148 231 C148.22 232.08 148.22 232.08 148.44 233.18 C149.12 236.51 149.78 239.85 150.44 243.19 C150.78 244.88 150.78 244.88 151.13 246.62 C160.11 292.27 146.38 337.61 121.01 375.8 C107.85 395.01 92.75 412.63 76.23 429.03 C74.36 430.89 72.5 432.76 70.64 434.63 C64.45 440.83 58.21 446.72 51.32 452.15 C49.03 453.98 46.85 455.89 44.69 457.88 C38.71 463.24 32.36 468.11 26 473 C25.07 473.71 25.07 473.71 24.13 474.44 C-16.8 505.77 -61.15 532.07 -107.01 555.47 C-109.73 556.86 -112.44 558.27 -115.15 559.69 C-116.6 560.44 -118.05 561.19 -119.5 561.94 C-120.45 562.44 -120.45 562.44 -121.42 562.96 C-123.16 563.84 -123.16 563.84 -126 565 C-126.99 564.67 -127.98 564.34 -129 564 C-128.49 563.62 -127.98 563.24 -127.45 562.86 C-116.58 554.62 -107.37 545.77 -99 535 C-98.22 534.06 -97.44 533.12 -96.63 532.14 C-74.02 504.69 -55.83 472.56 -40.4 440.64 C-39.18 438.1 -37.94 435.57 -36.71 433.04 C-32.53 424.46 -28.5 415.88 -25 407 C-26.24 406.97 -27.47 406.95 -28.75 406.92 C-52.36 406.23 -78.35 403.01 -100 393 C-96.87 391.26 -93.94 390.45 -90.46 389.7 C-84.11 388.16 -78.53 385.77 -72.69 382.88 C-71.68 382.39 -70.68 381.9 -69.65 381.39 C-62.21 377.72 -55.12 373.69 -48.1 369.29 C-45.61 367.76 -43.1 366.3 -40.58 364.83 C-26.35 356.59 -26.35 356.59 -13 347 C-12.35 346.52 -11.71 346.03 -11.04 345.54 C5.83 332.27 10.78 308.52 15.12 288.62 C15.3 287.84 15.47 287.06 15.65 286.26 C29.53 222.95 11.62 170.08 -22.61 116.2 C-36.49 94.72 -52.06 74.48 -68.75 55.12 C-69.29 54.49 -69.84 53.86 -70.4 53.21 C-72.81 50.43 -75.23 47.73 -77.89 45.18 C-80 43 -80 43 -80 41 C-75.49 42.39 -71.42 44.18 -67.22 46.31 C-66.58 46.63 -65.93 46.96 -65.26 47.3 C-63.19 48.34 -61.13 49.39 -59.06 50.44 C-49.72 55.18 -40.33 59.82 -30.87 64.32 C-18.2 70.35 -5.66 76.64 6.88 82.95 C18.62 88.86 30.41 94.68 42.29 100.32 C47.56 102.82 52.79 105.37 58 108 C51.75 69.38 30.44 37.88 5.85 8.29 C3.7 5.62 1.81 2.91 0 0 Z M146 228 C147 230 147 230 147 230 Z " fill="#F69020" transform="translate(1782,1676)"/>
<path d="M0 0 C0.33 0 0.66 0 1 0 C2.33 41.45 -6.05 92.12 -35.25 123.75 C-47.89 135.48 -63.91 144.02 -78.83 152.43 C-103.99 166.62 -126.87 183.9 -149.5 201.77 C-150.61 202.64 -151.71 203.51 -152.81 204.38 C-153.36 204.8 -153.9 205.23 -154.46 205.67 C-159.79 209.86 -165.17 213.96 -170.56 218.06 C-171.47 218.75 -172.38 219.45 -173.32 220.16 C-177.12 223.05 -180.93 225.95 -184.74 228.82 C-192.77 234.9 -200.51 241.27 -208 248 C-208.51 248.46 -209.03 248.92 -209.56 249.4 C-223.69 262.26 -233.92 278.39 -243.61 294.7 C-246.06 298.76 -248.63 302.75 -251.19 306.75 C-256.89 315.73 -262.36 324.81 -267.21 334.29 C-272.98 345.56 -279.52 354.6 -288.38 363.69 C-288.88 364.21 -289.38 364.73 -289.91 365.27 C-298.47 373.82 -307.76 378.51 -319.12 382.44 C-320.47 382.91 -321.82 383.39 -323.17 383.87 C-325.87 384.82 -328.57 385.77 -331.27 386.7 C-334.44 387.81 -337.6 388.94 -340.75 390.1 C-354.12 394.89 -367.79 398.37 -381.56 401.81 C-382.99 402.17 -382.99 402.17 -384.44 402.53 C-415.52 410.26 -415.52 410.26 -423 410 C-419.82 405.53 -416.47 401.35 -412.75 397.31 C-371.88 352.29 -349.87 293.26 -330.88 236.56 C-314.84 188.72 -314.84 188.72 -300 170 C-299.49 169.34 -298.98 168.69 -298.45 168.01 C-286.58 152.83 -273.51 139 -258.01 127.5 C-255.7 125.78 -253.42 124.03 -251.14 122.27 C-249.4 120.95 -247.67 119.63 -245.94 118.31 C-245.15 117.71 -244.36 117.1 -243.54 116.48 C-233.21 108.69 -222.75 102.4 -210.56 98 C-209.34 97.55 -208.13 97.1 -206.87 96.64 C-203.37 95.35 -199.87 94.09 -196.36 92.84 C-193.87 91.96 -191.39 91.06 -188.91 90.17 C-157.25 78.8 -125.27 68.55 -92.89 59.41 C-55.55 48.87 -22.16 33.24 0 0 Z " fill="#F58924" transform="translate(1952,921)"/>
<path d="M0 0 C0.33 0 0.66 0 1 0 C1.04 0.76 1.08 1.52 1.12 2.3 C2.9 34.94 9.72 65.53 18.64 96.92 C18.97 98.07 19.29 99.21 19.63 100.39 C21.25 106.09 22.89 111.8 24.54 117.49 C30.14 136.87 35.37 156.46 38.31 176.44 C38.55 177.91 38.55 177.91 38.78 179.42 C45.86 225.38 37.91 260.5 10.81 297.59 C6.53 303.3 2.01 308.82 -2.58 314.29 C-4.6 316.72 -6.58 319.17 -8.56 321.62 C-17.26 332.22 -26.24 342.46 -35.64 352.43 C-37.69 354.59 -39.71 356.77 -41.7 358.98 C-48.08 366.07 -54.75 372.82 -61.54 379.51 C-65.02 382.94 -68.39 386.39 -71.57 390.1 C-75.01 394.09 -78.75 397.63 -82.62 401.19 C-90.52 408.5 -98.14 416.07 -105.69 423.73 C-110.09 428.17 -114.54 432.44 -119.29 436.51 C-121.47 438.41 -123.49 440.43 -125.5 442.5 C-128.15 445.23 -130.88 447.8 -133.76 450.29 C-138.08 454.04 -142.23 457.94 -146.38 461.88 C-152.51 467.67 -158.69 473.39 -165 479 C-166.67 480.5 -168.33 482 -170 483.5 C-180 492.5 -180 492.5 -182.5 494.75 C-184.16 496.24 -185.82 497.74 -187.46 499.25 C-191.66 503.06 -195.9 506.76 -200.31 510.31 C-205.13 514.2 -209.65 518.33 -214.16 522.55 C-218.39 526.5 -222.81 530.16 -227.32 533.79 C-230.13 536.11 -232.82 538.53 -235.5 541 C-239.87 545.02 -244.37 548.79 -248.98 552.52 C-252.55 555.45 -256.02 558.47 -259.5 561.5 C-265.57 566.79 -271.74 571.93 -278 577 C-280.01 578.66 -282 580.33 -284 582 C-284.66 581.67 -285.32 581.34 -286 581 C-285.47 580.38 -284.93 579.76 -284.38 579.12 C-252.25 540.93 -231.77 491.73 -209.56 447.3 C-208.15 444.48 -206.73 441.65 -205.31 438.83 C-196.87 422.03 -188.66 405.16 -180.81 388.08 C-177.66 381.23 -174.37 374.44 -171.04 367.67 C-164.66 354.7 -158.58 341.62 -152.64 328.44 C-148.54 319.35 -144.34 310.31 -140.07 301.3 C-133.78 288.06 -127.71 274.73 -121.8 261.32 C-117.51 251.6 -113.14 241.93 -108.62 232.31 C-100.94 215.94 -93.75 199.35 -86.53 182.76 C-84.11 177.21 -84.11 177.21 -83 175 C-82.34 175.33 -81.68 175.66 -81 176 C-81.34 176.88 -81.68 177.77 -82.02 178.68 C-82.47 179.88 -82.92 181.08 -83.38 182.31 C-84.04 184.07 -84.04 184.07 -84.71 185.86 C-95.41 217.94 -84.9 253.14 -73.04 283.27 C-71.82 286.48 -70.85 289.68 -70 293 C-67.18 290.62 -66.48 288.82 -65.82 285.22 C-65.64 284.25 -65.45 283.27 -65.26 282.27 C-65.07 281.21 -64.88 280.15 -64.69 279.06 C-64.25 276.76 -63.81 274.47 -63.38 272.18 C-63.15 270.99 -62.92 269.8 -62.69 268.57 C-61.6 262.94 -60.4 257.33 -59.19 251.72 C-58.94 250.57 -58.69 249.42 -58.43 248.23 C-57.63 244.51 -56.81 240.78 -56 237.06 C-55.86 236.4 -55.71 235.74 -55.56 235.06 C-41.03 168.57 -25.03 102.39 -9.16 36.21 C-7.54 29.46 -5.93 22.71 -4.34 15.95 C-4.1 14.94 -3.86 13.94 -3.62 12.9 C-3.2 11.14 -2.79 9.38 -2.38 7.62 C-1.11 2.22 -1.11 2.22 0 0 Z " fill="#2077B5" transform="translate(1581,523)"/>
<path d="M0 0 C0.99 0.33 1.98 0.66 3 1 C4.21 3.75 5.22 6.42 6.19 9.25 C6.8 10.99 7.42 12.73 8.04 14.48 C8.36 15.39 8.68 16.29 9.01 17.23 C10.62 21.73 12.34 26.17 14.06 30.62 C16.61 37.29 19.11 43.97 21.5 50.69 C21.76 51.4 22.01 52.11 22.27 52.85 C24 57.76 24 57.76 24 60 C24.66 60 25.32 60 26 60 C33.39 82.15 40.71 104.32 47.2 126.76 C47.73 128.58 48.27 130.4 48.8 132.22 C49.55 134.76 50.28 137.3 51 139.84 C51.22 140.59 51.44 141.33 51.67 142.09 C52.9 146.54 52.8 149.52 52 154 C51.91 155.93 51.87 157.87 51.86 159.8 C51.85 160.93 51.84 162.05 51.84 163.21 C51.83 164.42 51.83 165.64 51.82 166.88 C51.8 169.5 51.78 172.12 51.76 174.75 C51.76 175.43 51.75 176.11 51.74 176.81 C51.54 202.09 50.71 226.95 47 252 C46.73 253.98 46.45 255.97 46.18 257.95 C43.16 279.93 39.06 301.74 35.01 323.55 C34.04 328.76 33.09 333.98 32.14 339.2 C19.21 410.22 19.21 410.22 10 445 C9.67 445 9.34 445 9 445 C8.91 438.69 9.25 432.58 9.9 426.3 C11.25 412.29 11.97 398.25 12.62 384.19 C12.66 383.49 12.69 382.8 12.72 382.08 C13.87 357.64 14.28 333.22 14.25 308.75 C14.25 307.98 14.25 307.2 14.25 306.41 C14.23 282.12 13.64 258 11.38 233.8 C11.13 231.07 10.88 228.33 10.64 225.59 C9.8 216.41 8.83 207.26 7.63 198.11 C7.5 197.12 7.37 196.12 7.23 195.1 C6.49 189.48 5.69 183.89 4.8 178.3 C-0.72 143.21 -0.74 108.49 -0.43 73.08 C-0.36 65.08 -0.33 57.09 -0.3 49.09 C-0.24 32.73 -0.14 16.36 0 0 Z " fill="#225DA8" transform="translate(1035,472)"/>
<path d="M0 0 C0.88 0.27 0.88 0.27 1.78 0.54 C36.37 10.96 70.68 17.66 106.62 21.12 C107.43 21.21 108.24 21.29 109.07 21.37 C145.37 24.94 181.82 25.37 218.26 25.32 C221.74 25.31 225.22 25.31 228.7 25.31 C264.32 25.3 299.79 24.57 335.34 22.18 C339.42 21.9 343.5 21.65 347.59 21.4 C349.72 21.27 351.86 21.13 354 21 C350.41 30.61 339.76 34.45 330.92 38.59 C305.03 50.23 277.12 56.08 249 59 C247.24 59.2 247.24 59.2 245.45 59.4 C241.96 59.72 238.49 59.9 235 60 C234.08 60.03 233.17 60.05 232.22 60.08 C182.73 61.31 131.84 52.78 83 45.12 C82.07 44.98 81.15 44.84 80.19 44.69 C77.61 44.28 75.02 43.86 72.44 43.45 C71.34 43.27 71.34 43.27 70.22 43.09 C66.53 42.48 62.85 41.8 59.19 41.04 C58.11 40.82 58.11 40.82 57.01 40.59 C53.53 39.57 50.98 37.5 48.19 35.25 C46.89 34.25 45.6 33.26 44.3 32.27 C43.61 31.74 42.92 31.21 42.21 30.67 C38.2 27.64 34.06 24.8 29.94 21.94 C22.9 17.04 15.9 12.09 8.95 7.09 C6.86 5.61 4.76 4.18 2.62 2.79 C1.75 2.2 0.89 1.61 0 1 C0 0.67 0 0.34 0 0 Z " fill="#F07236" transform="translate(1906,1663)"/>
<path d="M0 0 C-1.3 3.9 -3.68 5.15 -6.94 7.38 C-8.22 8.27 -9.51 9.17 -10.8 10.07 C-11.48 10.55 -12.17 11.02 -12.87 11.51 C-16.51 14.05 -20.1 16.65 -23.69 19.25 C-24.44 19.79 -25.18 20.33 -25.95 20.89 C-32.43 25.57 -38.86 30.31 -45.28 35.07 C-47.51 36.72 -49.76 38.36 -52 40 C-52.8 40.59 -53.6 41.18 -54.42 41.79 C-60.13 45.93 -65.91 49.14 -72.31 52.06 C-74.33 53.01 -76.34 53.95 -78.36 54.89 C-79.43 55.39 -80.49 55.89 -81.59 56.4 C-87.15 59.01 -92.67 61.68 -98.19 64.35 C-100 65.22 -101.81 66.09 -103.62 66.97 C-104.77 67.52 -105.92 68.07 -107.1 68.64 C-108.17 69.16 -109.25 69.68 -110.36 70.21 C-112.68 71.33 -114.94 72.5 -117.21 73.72 C-125.56 78.14 -133.68 80.88 -142.92 82.97 C-144.34 83.3 -145.75 83.64 -147.16 83.97 C-150.91 84.85 -154.67 85.7 -158.42 86.54 C-160.77 87.07 -163.11 87.6 -165.45 88.13 C-192 94.14 -218.42 98.49 -245.57 100.79 C-247.84 100.99 -250.12 101.2 -252.39 101.41 C-284.15 104.37 -320.79 106.11 -352 98 C-352.66 97.34 -353.32 96.68 -354 96 C-350.07 94.24 -346.4 93.47 -342.16 92.82 C-328.9 90.61 -315.84 87.46 -302.75 84.45 C-300.48 83.93 -298.2 83.41 -295.93 82.89 C-260.89 74.87 -225.99 66.25 -191.11 57.53 C-188.94 56.98 -186.76 56.44 -184.59 55.9 C-183.86 55.71 -183.12 55.53 -182.37 55.34 C-180.89 54.97 -179.42 54.6 -177.95 54.24 C-174.5 53.37 -171.05 52.51 -167.6 51.65 C-161.21 50.05 -154.81 48.46 -148.4 46.89 C-141.23 45.13 -134.14 43.21 -127.07 41.06 C-122.71 39.76 -118.33 38.56 -113.92 37.43 C-84.1 29.81 -54.65 20.48 -25.75 9.88 C-24.59 9.45 -23.44 9.03 -22.24 8.59 C-16.08 6.28 -10.09 3.75 -4.15 0.92 C-2 0 -2 0 0 0 Z " fill="#F07434" transform="translate(2003,1323)"/>
<path d="M0 0 C23.5 6.31 43.53 19.4 61 36 C62.41 37.22 63.83 38.42 65.25 39.62 C80.13 52.64 92.6 70.96 101.56 88.5 C101.9 89.15 102.23 89.79 102.58 90.46 C104.67 94.72 105.56 98.34 106 103 C101.46 103 100.6 102.34 96.94 99.88 C79.62 88.72 60.44 80.1 41.85 71.34 C37.88 69.47 33.93 67.57 29.97 65.68 C21.23 61.48 12.47 57.32 3.67 53.24 C2.1 52.51 0.54 51.77 -1 51 C-1.03 43.9 -1.04 36.8 -1.05 29.69 C-1.06 27.27 -1.07 24.86 -1.08 22.44 C-1.09 18.97 -1.09 15.5 -1.1 12.04 C-1.1 10.95 -1.11 9.86 -1.11 8.74 C-1.11 7.74 -1.11 6.73 -1.11 5.7 C-1.12 4.82 -1.12 3.93 -1.12 3.02 C-1 1 -1 1 0 0 Z " fill="#6F472A" transform="translate(1622,1581)"/>
<path d="M0 0 C0 0.99 0 1.98 0 3 C-2.06 4.97 -4.11 6.77 -6.31 8.56 C-7.6 9.64 -8.89 10.72 -10.18 11.8 C-10.83 12.34 -11.47 12.87 -12.14 13.43 C-14.78 15.66 -17.33 17.98 -19.88 20.31 C-23.53 23.67 -27.23 26.97 -30.97 30.22 C-34.12 32.98 -37.21 35.79 -40.31 38.59 C-41.2 39.39 -42.09 40.18 -43 41 C-43.51 41.53 -44.02 42.06 -44.55 42.61 C-50.34 48.29 -56.41 50.24 -64.1 52.43 C-65.42 52.83 -66.73 53.22 -68.05 53.62 C-70.89 54.47 -73.73 55.3 -76.57 56.13 C-81.15 57.46 -85.71 58.82 -90.28 60.18 C-95.97 61.88 -101.65 63.57 -107.35 65.25 C-122.52 69.73 -137.65 74.34 -152.78 78.96 C-158.62 80.74 -164.46 82.51 -170.3 84.28 C-184.96 88.72 -199.61 93.18 -214.24 97.7 C-218.83 99.11 -223.42 100.52 -228.02 101.93 C-230.44 102.68 -232.87 103.43 -235.29 104.18 C-238.57 105.21 -241.85 106.22 -245.14 107.22 C-246.09 107.52 -247.04 107.82 -248.03 108.13 C-248.89 108.4 -249.76 108.66 -250.66 108.93 C-251.41 109.17 -252.15 109.4 -252.92 109.64 C-255.26 110.05 -256.76 109.73 -259 109 C-243.37 102.16 -227.7 95.42 -211.94 88.88 C-198.15 83.15 -184.38 77.38 -170.62 71.56 C-168.7 70.75 -166.78 69.94 -164.86 69.13 C-162 67.92 -159.14 66.71 -156.28 65.5 C-145.51 60.95 -134.73 56.41 -123.95 51.87 C-122.41 51.22 -120.88 50.58 -119.34 49.93 C-118.21 49.46 -118.21 49.46 -117.05 48.97 C-112.14 46.9 -107.23 44.83 -102.32 42.76 C-98.89 41.31 -95.46 39.86 -92.04 38.42 C-90.42 37.74 -88.81 37.06 -87.19 36.37 C-79.6 33.16 -71.99 29.97 -64.33 26.93 C-56.91 23.98 -49.54 20.91 -42.19 17.81 C-40.85 17.25 -39.52 16.69 -38.18 16.13 C-25.45 10.78 -12.72 5.39 0 0 Z " fill="#F07434" transform="translate(2299,1318)"/>
<path d="M0 0 C1.36 0.01 1.36 0.01 2.75 0.03 C19.88 0.44 38.94 5.36 53 15.44 C52.67 16.1 52.34 16.76 52 17.44 C49.25 17.87 46.58 18.17 43.82 18.4 C42.96 18.48 42.1 18.56 41.21 18.64 C38.36 18.89 35.5 19.14 32.64 19.38 C30.65 19.56 28.66 19.74 26.67 19.91 C22.49 20.28 18.31 20.65 14.13 21.01 C8.8 21.46 3.47 21.94 -1.86 22.41 C-5.98 22.78 -10.09 23.14 -14.2 23.5 C-16.17 23.67 -18.13 23.84 -20.09 24.02 C-30.08 24.9 -39.97 25.75 -50 25.44 C-38.31 10.18 -19.34 -0.23 0 0 Z " fill="#FDFCFB" transform="translate(1479,1387.5625)"/>
<path d="M0 0 C0.66 0 1.32 0 2 0 C2 0.66 2 1.32 2 2 C2.66 2 3.32 2 4 2 C4 7.28 4 12.56 4 18 C-2.27 18 -8.54 18 -15 18 C-15.33 17.01 -15.66 16.02 -16 15 C-16 15.99 -16 16.98 -16 18 C-16.66 18 -17.32 18 -18 18 C-18 17.34 -18 16.68 -18 16 C-18.66 15.67 -19.32 15.34 -20 15 C-16.85 11.24 -14.75 10.72 -10 10 C-9.34 9.01 -8.68 8.02 -8 7 C-7.67 7.33 -7.34 7.66 -7 8 C-4.82 5.32 -4.82 5.32 -5 3 C-2.53 3.5 -2.53 3.5 0 4 C-0.33 3.01 -0.66 2.02 -1 1 C-0.67 0.67 -0.34 0.34 0 0 Z M-3 5 C-2 7 -2 7 -2 7 Z M-11 12 C-10.34 12.66 -9.68 13.32 -9 14 C-9 13.34 -9 12.68 -9 12 C-9.66 12 -10.32 12 -11 12 Z M-11 15 C-11.33 15.66 -11.66 16.32 -12 17 C-11.34 17 -10.68 17 -10 17 C-10.33 16.34 -10.66 15.68 -11 15 Z " fill="#553018" transform="translate(2421,921)"/>
<path d="M0 0 C2 3 2 3 2 6 C2.96 6.22 2.96 6.22 3.94 6.44 C6 7 6 7 7 8 C7.66 9.32 8.32 10.64 9 12 C3.39 12 -2.22 12 -8 12 C-8 8.37 -8 4.74 -8 1 C-4 3 -4 3 -3 5 C-2.01 3.35 -1.02 1.7 0 0 Z M-3 6 C-2 8 -2 8 -2 8 Z M1 8 C1 8.66 1 9.32 1 10 C1.66 10 2.32 10 3 10 C3 9.34 3 8.68 3 8 C2.34 8 1.68 8 1 8 Z " fill="#8B5E3B" transform="translate(2197,927)"/>
<path d="M0 0 C0.66 0 1.32 0 2 0 C1.69 2.06 1.38 4.13 1.06 6.19 C0.89 7.34 0.71 8.48 0.54 9.67 C0.09 12.46 -0.42 15.23 -1 18 C-1.33 18 -1.66 18 -2 18 C-2.12 12.23 -1.92 6.71 -1 1 C-0.67 0.67 -0.34 0.34 0 0 Z " fill="#27479C" transform="translate(974,1018)"/>
<path d="M0 0 C0 0.99 0 1.98 0 3 C-1.58 3.53 -3.16 4.05 -4.75 4.56 C-5.63 4.85 -6.51 5.14 -7.42 5.44 C-10.08 6.02 -11.47 5.89 -14 5 C-12.04 4.16 -10.08 3.33 -8.12 2.5 C-6.49 1.8 -6.49 1.8 -4.82 1.09 C-2 0 -2 0 0 0 Z " fill="#EA4937" transform="translate(2054,1422)"/>
<path d="M0 0 C0.66 0.33 1.32 0.66 2 1 C-0.97 7.93 -0.97 7.93 -4 15 C-5.17 11.5 -4.76 10.38 -3.69 6.94 C-3.42 6.06 -3.16 5.18 -2.89 4.28 C-2 2 -2 2 0 0 Z " fill="#2358A5" transform="translate(1231,826)"/>
<path d="M0 0 C0.66 0.33 1.32 0.66 2 1 C1.67 3.31 1.34 5.62 1 8 C0.01 8.33 -0.98 8.66 -2 9 C-1.34 6.03 -0.68 3.06 0 0 Z " fill="#2362AD" transform="translate(1318,618)"/>
<path d="M0 0 C0.99 0.33 1.98 0.66 3 1 C3 2.32 3 3.64 3 5 C1.68 5 0.36 5 -1 5 C-0.67 3.35 -0.34 1.7 0 0 Z " fill="#8B5E3B" transform="translate(2208,934)"/>
<path d="M0 0 C0.99 0.33 1.98 0.66 3 1 C2.34 1.66 1.68 2.32 1 3 C0.34 3 -0.32 3 -1 3 C-0.67 2.01 -0.34 1.02 0 0 Z " fill="#8B5E3B" transform="translate(2217,936)"/>
<path d="M0 0 C0.66 0 1.32 0 2 0 C1.67 1.32 1.34 2.64 1 4 C0.34 3.01 -0.32 2.02 -1 1 C-0.67 0.67 -0.34 0.34 0 0 Z " fill="#522E16" transform="translate(2423,918)"/>
<path d="M0 0 C0.99 0 1.98 0 3 0 C2.67 0.99 2.34 1.98 2 3 C1.34 2.01 0.68 1.02 0 0 Z " fill="#532F17" transform="translate(2418,919)"/>
<path d="M0 0 C0.66 0.33 1.32 0.66 2 1 C1.01 2.49 1.01 2.49 0 4 C-0.33 3.34 -0.66 2.68 -1 2 C-0.67 1.34 -0.34 0.68 0 0 Z " fill="#553019" transform="translate(2416,917)"/>
<path d="M0 0 C0.66 0.99 1.32 1.98 2 3 C1.01 2.67 0.02 2.34 -1 2 C-0.67 1.34 -0.34 0.68 0 0 Z " fill="#5C371E" transform="translate(2400,932)"/>
<path d="M0 0 C1.65 0 3.3 0 5 0 C5 0.33 5 0.66 5 1 C3.35 1 1.7 1 0 1 C0 0.67 0 0.34 0 0 Z " fill="#5E3920" transform="translate(2393,933)"/>
<path d="M0 0 C0.33 1.32 0.66 2.64 1 4 C0.34 3.67 -0.32 3.34 -1 3 C-0.67 2.01 -0.34 1.02 0 0 Z " fill="#8B5E3B" transform="translate(2193,924)"/>
<path d="M0 0 C0.66 0.66 1.32 1.32 2 2 C1.01 2.5 1.01 2.5 0 3 C0 2.01 0 1.02 0 0 Z " fill="#5B361D" transform="translate(2402,930)"/>
<path d="M0 0 C0.66 0.66 1.32 1.32 2 2 C1.01 2.5 1.01 2.5 0 3 C0 2.01 0 1.02 0 0 Z " fill="#8B5E3B" transform="translate(2206,928)"/>
<path d="M0 0 C0.99 0.33 1.98 0.66 3 1 C2.01 1 1.02 1 0 1 C0 0.67 0 0.34 0 0 Z " fill="#8B5E3B" transform="translate(2200,926)"/>
<path d="M0 0 C3 1 3 1 3 1 Z " fill="#5D381F" transform="translate(2397,938)"/>
<path d="M0 0 C0.66 0.66 1.32 1.32 2 2 C1.34 2 0.68 2 0 2 C0 1.34 0 0.68 0 0 Z " fill="#8B5E3B" transform="translate(2220,934)"/>
<path d="M0 0 C0.99 0.5 0.99 0.5 2 1 C1.01 1.5 1.01 1.5 0 2 C0 1.34 0 0.68 0 0 Z " fill="#8B5E3B" transform="translate(2205,934)"/>
<path d="" fill="#58341B" transform="translate(0,0)"/>
<path d="" fill="#8B5E3B" transform="translate(0,0)"/>
<path d="" fill="#8B5E3B" transform="translate(0,0)"/>
<path d="M0 0 C0.66 0.66 1.32 1.32 2 2 C1.34 2 0.68 2 0 2 C0 1.34 0 0.68 0 0 Z " fill="#533018" transform="translate(2418,915)"/>
<path d="M0 0 C2 1 2 1 2 1 Z " fill="#613C22" transform="translate(2388,937)"/>
<path d="M0 0 C2 1 2 1 2 1 Z " fill="#8B5E3B" transform="translate(2214,936)"/>
<path d="M0 0 C2 1 2 1 2 1 Z " fill="#8B5E3B" transform="translate(2229,934)"/>
<path d="M0 0 C2 1 2 1 2 1 Z " fill="#5A351D" transform="translate(2404,930)"/>
<path d="M0 0 C2 1 2 1 2 1 Z " fill="#8B5E3B" transform="translate(2226,930)"/>
<path d="" fill="#8B5E3B" transform="translate(0,0)"/>
<path d="" fill="#5D381F" transform="translate(0,0)"/>
<path d="" fill="#57331B" transform="translate(0,0)"/>
<path d="" fill="#5D381F" transform="translate(0,0)"/>
<path d="M0 0 C2 1 2 1 2 1 Z " fill="#57331B" transform="translate(2410,924)"/>
<path d="" fill="#8B5E3B" transform="translate(0,0)"/>
<path d="M0 0 C2 1 2 1 2 1 Z " fill="#553119" transform="translate(2415,915)"/>
<path d="M0 0 C2 1 2 1 2 1 Z " fill="#522F17" transform="translate(2421,909)"/>
<path d="" fill="#5C371E" transform="translate(0,0)"/>
<path d="" fill="#633D23" transform="translate(0,0)"/>
<path d="" fill="#694227" transform="translate(0,0)"/>
<path d="" fill="#8B5E3B" transform="translate(0,0)"/>
<path d="" fill="#8B5E3B" transform="translate(0,0)"/>
<path d="" fill="#8B5E3B" transform="translate(0,0)"/>
<path d="" fill="#8B5E3B" transform="translate(0,0)"/>
<path d="" fill="#6C4429" transform="translate(0,0)"/>
<path d="" fill="#6F462A" transform="translate(0,0)"/>
<path d="" fill="#8B5E3B" transform="translate(0,0)"/>
<path d="" fill="#5D381F" transform="translate(0,0)"/>
<path d="" fill="#603A21" transform="translate(0,0)"/>
<path d="" fill="#8B5E3B" transform="translate(0,0)"/>
<path d="" fill="#8B5E3B" transform="translate(0,0)"/>
<path d="" fill="#613C22" transform="translate(0,0)"/>
<path d="" fill="#653E24" transform="translate(0,0)"/>
<path d="" fill="#8B5E3B" transform="translate(0,0)"/>
<path d="" fill="#613B22" transform="translate(0,0)"/>
<path d="" fill="#674025" transform="translate(0,0)"/>
<path d="" fill="#8B5E3B" transform="translate(0,0)"/>
<path d="" fill="#8B5E3B" transform="translate(0,0)"/>
<path d="" fill="#8B5E3B" transform="translate(0,0)"/>
<path d="" fill="#8B5E3B" transform="translate(0,0)"/>
<path d="" fill="#8B5E3B" transform="translate(0,0)"/>
<path d="" fill="#613B22" transform="translate(0,0)"/>
<path d="" fill="#6B4429" transform="translate(0,0)"/>
<path d="" fill="#8B5E3B" transform="translate(0,0)"/>
<path d="" fill="#8B5E3B" transform="translate(0,0)"/>
<path d="" fill="#8B5E3B" transform="translate(0,0)"/>
<path d="" fill="#8B5E3B" transform="translate(0,0)"/>
<path d="" fill="#5D381F" transform="translate(0,0)"/>
<path d="" fill="#8B5E3B" transform="translate(0,0)"/>
<path d="" fill="#8B5E3B" transform="translate(0,0)"/>
<path d="" fill="#58341B" transform="translate(0,0)"/>
<path d="" fill="#8B5E3B" transform="translate(0,0)"/>
<path d="" fill="#5C371F" transform="translate(0,0)"/>
<path d="" fill="#5F3A21" transform="translate(0,0)"/>
<path d="" fill="#8B5E3B" transform="translate(0,0)"/>
<path d="" fill="#8B5E3B" transform="translate(0,0)"/>
<path d="" fill="#8B5E3B" transform="translate(0,0)"/>
<path d="" fill="#58331B" transform="translate(0,0)"/>
<path d="" fill="#5A351C" transform="translate(0,0)"/>
<path d="" fill="#8B5E3B" transform="translate(0,0)"/>
<path d="" fill="#57321A" transform="translate(0,0)"/>
<path d="" fill="#8B5E3B" transform="translate(0,0)"/>
<path d="" fill="#8B5E3B" transform="translate(0,0)"/>
<path d="" fill="#8B5E3B" transform="translate(0,0)"/>
<path d="" fill="#5A351C" transform="translate(0,0)"/>
<path d="" fill="#613C22" transform="translate(0,0)"/>
<path d="" fill="#8B5E3B" transform="translate(0,0)"/>
<path d="" fill="#8B5E3B" transform="translate(0,0)"/>
<path d="" fill="#563219" transform="translate(0,0)"/>
<path d="" fill="#5C371E" transform="translate(0,0)"/>
<path d="" fill="#653E24" transform="translate(0,0)"/>
<path d="" fill="#8B5E3B" transform="translate(0,0)"/>
<path d="" fill="#8B5E3B" transform="translate(0,0)"/>
<path d="" fill="#8B5E3B" transform="translate(0,0)"/>
<path d="" fill="#5B361D" transform="translate(0,0)"/>
<path d="" fill="#8B5E3B" transform="translate(0,0)"/>
<path d="" fill="#533018" transform="translate(0,0)"/>
<path d="" fill="#8B5E3B" transform="translate(0,0)"/>
<path d="" fill="#8B5E3B" transform="translate(0,0)"/>
<path d="" fill="#543018" transform="translate(0,0)"/>
<path d="" fill="#5A351D" transform="translate(0,0)"/>
<path d="" fill="#613B22" transform="translate(0,0)"/>
<path d="" fill="#8B5E3B" transform="translate(0,0)"/>
<path d="" fill="#553119" transform="translate(0,0)"/>
<path d="" fill="#5A351C" transform="translate(0,0)"/>
<path d="" fill="#5E381F" transform="translate(0,0)"/>
<path d="" fill="#5F3A21" transform="translate(0,0)"/>
<path d="" fill="#8B5E3B" transform="translate(0,0)"/>
<path d="" fill="#57331B" transform="translate(0,0)"/>
<path d="" fill="#532F17" transform="translate(0,0)"/>
<path d="" fill="#532F17" transform="translate(0,0)"/>
<path d="" fill="#57321A" transform="translate(0,0)"/>
<path d="" fill="#522F17" transform="translate(0,0)"/>
<path d="" fill="#5A351C" transform="translate(0,0)"/>
<path d="" fill="#532F17" transform="translate(0,0)"/>
<path d="" fill="#57321A" transform="translate(0,0)"/>
<path d="" fill="#522F17" transform="translate(0,0)"/>
<path d="" fill="#57321A" transform="translate(0,0)"/>
<path d="" fill="#522E16" transform="translate(0,0)"/>
<path d="" fill="#563219" transform="translate(0,0)"/>
<path d="" fill="#522F17" transform="translate(0,0)"/>
<path d="" fill="#522E16" transform="translate(0,0)"/>
<path d="" fill="#553119" transform="translate(0,0)"/>
<path d="" fill="#522E16" transform="translate(0,0)"/>
<path d="" fill="#522E16" transform="translate(0,0)"/>
<path d="" fill="#553119" transform="translate(0,0)"/>
<path d="" fill="#5B371E" transform="translate(0,0)"/>
</svg>
